%TF.GenerationSoftware,KiCad,Pcbnew,8.0.7*%
%TF.CreationDate,2025-01-07T22:46:36+01:00*%
%TF.ProjectId,simple-robot,73696d70-6c65-42d7-926f-626f742e6b69,rev?*%
%TF.SameCoordinates,Original*%
%TF.FileFunction,Soldermask,Bot*%
%TF.FilePolarity,Negative*%
%FSLAX46Y46*%
G04 Gerber Fmt 4.6, Leading zero omitted, Abs format (unit mm)*
G04 Created by KiCad (PCBNEW 8.0.7) date 2025-01-07 22:46:36*
%MOMM*%
%LPD*%
G01*
G04 APERTURE LIST*
%ADD10R,1.524000X1.524000*%
%ADD11C,1.524000*%
%ADD12R,1.700000X1.700000*%
%ADD13O,1.700000X1.700000*%
%ADD14C,1.600000*%
%ADD15O,1.600000X1.600000*%
%ADD16R,1.600000X1.600000*%
%ADD17R,2.200000X2.200000*%
%ADD18O,2.200000X2.200000*%
%ADD19O,1.800000X1.800000*%
%ADD20O,1.500000X1.500000*%
%ADD21C,7.400000*%
G04 APERTURE END LIST*
D10*
%TO.C,OLED1*%
X126670000Y-114635000D03*
D11*
X129210000Y-114635000D03*
X131750000Y-114635000D03*
X134290000Y-114635000D03*
%TD*%
D12*
%TO.C,ENCA1*%
X57500000Y-117500000D03*
D13*
X57500000Y-120040000D03*
X57500000Y-122580000D03*
X57500000Y-125120000D03*
%TD*%
D10*
%TO.C,R1*%
X143940000Y-98000000D03*
X143940000Y-95460000D03*
X143940000Y-92920000D03*
X143940000Y-90380000D03*
X143940000Y-87840000D03*
X143940000Y-85300000D03*
X143940000Y-82760000D03*
%TD*%
D14*
%TO.C,C8*%
X131250000Y-96500000D03*
X131250000Y-99000000D03*
%TD*%
%TO.C,R5*%
X70750000Y-111410000D03*
D15*
X70750000Y-101250000D03*
%TD*%
D12*
%TO.C,J2*%
X79880000Y-60500000D03*
D13*
X79880000Y-63040000D03*
X79880000Y-65580000D03*
%TD*%
D10*
%TO.C,S5V1*%
X104750000Y-124080000D03*
D11*
X104750000Y-121540000D03*
X104750000Y-119000000D03*
%TD*%
D12*
%TO.C,TP1*%
X133250000Y-108670000D03*
%TD*%
D10*
%TO.C,S6V1*%
X104750000Y-135340000D03*
D11*
X104750000Y-132800000D03*
X104750000Y-130260000D03*
%TD*%
D14*
%TO.C,C5*%
X139500000Y-85250000D03*
X139500000Y-87750000D03*
%TD*%
D16*
%TO.C,C2*%
X112000000Y-120000000D03*
D14*
X112000000Y-122000000D03*
%TD*%
D12*
%TO.C,J3*%
X57500000Y-79750000D03*
D13*
X57500000Y-82290000D03*
X57500000Y-84830000D03*
%TD*%
D14*
%TO.C,C7*%
X113000000Y-90750000D03*
X113000000Y-93250000D03*
%TD*%
D12*
%TO.C,J4*%
X57500000Y-68550000D03*
D13*
X57500000Y-71090000D03*
X57500000Y-73630000D03*
%TD*%
D12*
%TO.C,ENCB1*%
X70000000Y-117750000D03*
D13*
X70000000Y-120290000D03*
X70000000Y-122830000D03*
X70000000Y-125370000D03*
%TD*%
D16*
%TO.C,C3*%
X112250000Y-130750000D03*
D14*
X112250000Y-132750000D03*
%TD*%
D17*
%TO.C,D1*%
X74910000Y-93000000D03*
D18*
X64750000Y-93000000D03*
%TD*%
D14*
%TO.C,C9*%
X63500000Y-71000000D03*
X63500000Y-73500000D03*
%TD*%
%TO.C,R4*%
X65750000Y-101250000D03*
D15*
X65750000Y-111410000D03*
%TD*%
D12*
%TO.C,TP2*%
X137500000Y-108750000D03*
%TD*%
D11*
%TO.C,IMU1*%
X128000000Y-84110000D03*
X128000000Y-81570000D03*
X128000000Y-79030000D03*
X128000000Y-76490000D03*
X128000000Y-73950000D03*
X128000000Y-71410000D03*
X128000000Y-68870000D03*
X128000000Y-66330000D03*
X128000000Y-63790000D03*
X128000000Y-61250000D03*
%TD*%
D12*
%TO.C,J1*%
X57500000Y-91500000D03*
D13*
X57500000Y-94040000D03*
X57500000Y-96580000D03*
%TD*%
D19*
%TO.C,U1*%
X93135000Y-60000000D03*
D20*
X93435000Y-63030000D03*
X98285000Y-63030000D03*
D19*
X98585000Y-60000000D03*
D13*
X86970000Y-59870000D03*
X86970000Y-62410000D03*
D12*
X86970000Y-64950000D03*
D13*
X86970000Y-67490000D03*
X86970000Y-70030000D03*
X86970000Y-72570000D03*
X86970000Y-75110000D03*
D12*
X86970000Y-77650000D03*
D13*
X86970000Y-80190000D03*
X86970000Y-82730000D03*
X86970000Y-85270000D03*
X86970000Y-87810000D03*
D12*
X86970000Y-90350000D03*
D13*
X86970000Y-92890000D03*
X86970000Y-95430000D03*
X86970000Y-97970000D03*
X86970000Y-100510000D03*
D12*
X86970000Y-103050000D03*
D13*
X86970000Y-105590000D03*
X86970000Y-108130000D03*
X104750000Y-108130000D03*
X104750000Y-105590000D03*
D12*
X104750000Y-103050000D03*
D13*
X104750000Y-100510000D03*
X104750000Y-97970000D03*
X104750000Y-95430000D03*
X104750000Y-92890000D03*
D12*
X104750000Y-90350000D03*
D13*
X104750000Y-87810000D03*
X104750000Y-85270000D03*
X104750000Y-82730000D03*
X104750000Y-80190000D03*
D12*
X104750000Y-77650000D03*
D13*
X104750000Y-75110000D03*
X104750000Y-72570000D03*
X104750000Y-70030000D03*
X104750000Y-67490000D03*
D12*
X104750000Y-64950000D03*
D13*
X104750000Y-62410000D03*
X104750000Y-59870000D03*
X93320000Y-107900000D03*
D12*
X95860000Y-107900000D03*
D13*
X98400000Y-107900000D03*
%TD*%
D16*
%TO.C,C1*%
X75750000Y-133817600D03*
D14*
X75750000Y-136317600D03*
%TD*%
D10*
%TO.C,D3*%
X57000000Y-62500000D03*
D11*
X60360000Y-62500000D03*
X63720000Y-62500000D03*
X67080000Y-62420000D03*
%TD*%
D21*
%TO.C,REF-MNT*%
X148500000Y-105000000D03*
%TD*%
%TO.C,REF\u002A\u002A*%
X148500000Y-134500000D03*
%TD*%
D12*
%TO.C,TP3*%
X64500000Y-120000000D03*
%TD*%
%TO.C,BATT1*%
X148500000Y-125250000D03*
D13*
X148500000Y-127790000D03*
%TD*%
D14*
%TO.C,R3*%
X74922000Y-71460000D03*
D15*
X74922000Y-61300000D03*
%TD*%
D14*
%TO.C,C4*%
X133750000Y-81500000D03*
X133750000Y-84000000D03*
%TD*%
D12*
%TO.C,MOTB1*%
X64362500Y-134000000D03*
D13*
X64362500Y-136540000D03*
%TD*%
D10*
%TO.C,LS_1*%
X116750000Y-91500000D03*
D11*
X116750000Y-94040000D03*
X116750000Y-96580000D03*
X116750000Y-99120000D03*
X116750000Y-101660000D03*
X116750000Y-104200000D03*
X126910000Y-91500000D03*
X126910000Y-94040000D03*
X126910000Y-96580000D03*
X126910000Y-99120000D03*
X126910000Y-101660000D03*
X126910000Y-104200000D03*
%TD*%
D12*
%TO.C,HC-SRo4*%
X57400000Y-109430000D03*
D13*
X57400000Y-106890000D03*
X57400000Y-104350000D03*
X57400000Y-101810000D03*
%TD*%
D17*
%TO.C,D2*%
X74660000Y-86250000D03*
D18*
X64500000Y-86250000D03*
%TD*%
D12*
%TO.C,TP4*%
X76500000Y-120250000D03*
%TD*%
D14*
%TO.C,C6*%
X126500000Y-109000000D03*
X129000000Y-109000000D03*
%TD*%
D11*
%TO.C,MD1*%
X82000000Y-119000011D03*
X82000000Y-121537153D03*
X82000000Y-124074295D03*
X82000000Y-126611437D03*
X82000000Y-129148579D03*
X82000000Y-131685721D03*
X82000000Y-134222863D03*
X82000000Y-136760011D03*
X94730000Y-119000011D03*
X94730000Y-121537153D03*
X94730000Y-124074295D03*
X94730000Y-126611437D03*
X94730000Y-129148579D03*
X94730000Y-131685721D03*
X94730000Y-134222863D03*
X94730000Y-136760011D03*
%TD*%
D12*
%TO.C,MOTA1*%
X57750000Y-134000000D03*
D13*
X57750000Y-136540000D03*
%TD*%
D14*
%TO.C,R2*%
X70500000Y-71410000D03*
D15*
X70500000Y-61250000D03*
%TD*%
M02*
