%TF.GenerationSoftware,KiCad,Pcbnew,8.0.7*%
%TF.CreationDate,2025-01-08T12:31:34+01:00*%
%TF.ProjectId,simple-robot,73696d70-6c65-42d7-926f-626f742e6b69,rev?*%
%TF.SameCoordinates,Original*%
%TF.FileFunction,Drillmap*%
%TF.FilePolarity,Positive*%
%FSLAX45Y45*%
G04 Gerber Fmt 4.5, Leading zero omitted, Abs format (unit mm)*
G04 Created by KiCad (PCBNEW 8.0.7) date 2025-01-08 12:31:34*
%MOMM*%
%LPD*%
G01*
G04 APERTURE LIST*
%ADD10C,0.100000*%
%ADD11C,0.200000*%
%ADD12C,0.102000*%
%ADD13C,0.110000*%
%ADD14C,0.370000*%
G04 APERTURE END LIST*
D10*
X5500000Y-13900000D02*
X15475000Y-13900000D01*
X5500000Y-5800000D02*
X15475000Y-5800000D01*
X5500000Y-5800000D02*
X5500000Y-13900000D01*
X15475000Y-13900000D02*
X15475000Y-5800000D01*
D11*
D10*
X6130000Y-8905000D02*
X6170000Y-8945000D01*
X6170000Y-8905000D02*
X6130000Y-8945000D01*
X8008560Y-12558850D02*
X8048560Y-12598850D01*
X8048560Y-12558850D02*
X8008560Y-12598850D01*
X9177470Y-10387530D02*
X9217470Y-10427530D01*
X9217470Y-10387530D02*
X9177470Y-10427530D01*
X9180000Y-10492500D02*
X9220000Y-10532500D01*
X9220000Y-10492500D02*
X9180000Y-10532500D01*
X9784520Y-12666200D02*
X9824520Y-12706200D01*
X9824520Y-12666200D02*
X9784520Y-12706200D01*
X10209200Y-11600900D02*
X10249200Y-11640900D01*
X10249200Y-11600900D02*
X10209200Y-11640900D01*
X10855000Y-6230000D02*
X10895000Y-6270000D01*
X10895000Y-6230000D02*
X10855000Y-6270000D01*
X11130000Y-6230000D02*
X11170000Y-6270000D01*
X11170000Y-6230000D02*
X11130000Y-6270000D01*
X11212500Y-8324750D02*
X11252500Y-8364750D01*
X11252500Y-8324750D02*
X11212500Y-8364750D01*
X11380000Y-9555000D02*
X11420000Y-9595000D01*
X11420000Y-9555000D02*
X11380000Y-9595000D01*
X12843500Y-9762480D02*
X12883500Y-9802480D01*
X12883500Y-9762480D02*
X12843500Y-9802480D01*
X12855000Y-8580000D02*
X12895000Y-8620000D01*
X12895000Y-8580000D02*
X12855000Y-8620000D01*
X12855000Y-8905000D02*
X12895000Y-8945000D01*
X12895000Y-8905000D02*
X12855000Y-8945000D01*
X13330000Y-9705000D02*
X13370000Y-9745000D01*
X13370000Y-9705000D02*
X13330000Y-9745000D01*
X13330000Y-10005000D02*
X13370000Y-10045000D01*
X13370000Y-10005000D02*
X13330000Y-10045000D01*
X13382500Y-10155000D02*
X13422500Y-10195000D01*
X13422500Y-10155000D02*
X13382500Y-10195000D01*
X13382500Y-10280000D02*
X13422500Y-10320000D01*
X13422500Y-10280000D02*
X13382500Y-10320000D01*
X13455000Y-9705000D02*
X13495000Y-9745000D01*
X13495000Y-9705000D02*
X13455000Y-9745000D01*
X13555000Y-9180000D02*
X13595000Y-9220000D01*
X13595000Y-9180000D02*
X13555000Y-9220000D01*
X13652500Y-10155000D02*
X13692500Y-10195000D01*
X13692500Y-10155000D02*
X13652500Y-10195000D01*
X13652500Y-10280000D02*
X13692500Y-10320000D01*
X13692500Y-10280000D02*
X13652500Y-10320000D01*
X13730000Y-9951160D02*
X13770000Y-9991160D01*
X13770000Y-9951160D02*
X13730000Y-9991160D01*
X14021620Y-10268910D02*
X14061620Y-10308910D01*
X14061620Y-10268910D02*
X14021620Y-10308910D01*
X14680000Y-9980000D02*
X14720000Y-10020000D01*
X14720000Y-9980000D02*
X14680000Y-10020000D01*
X5738100Y-6250000D02*
G75*
G02*
X5661900Y-6250000I-38100J0D01*
G01*
X5661900Y-6250000D02*
G75*
G02*
X5738100Y-6250000I38100J0D01*
G01*
X6074100Y-6250000D02*
G75*
G02*
X5997900Y-6250000I-38100J0D01*
G01*
X5997900Y-6250000D02*
G75*
G02*
X6074100Y-6250000I38100J0D01*
G01*
X6410100Y-6250000D02*
G75*
G02*
X6333900Y-6250000I-38100J0D01*
G01*
X6333900Y-6250000D02*
G75*
G02*
X6410100Y-6250000I38100J0D01*
G01*
X6746100Y-6242000D02*
G75*
G02*
X6669900Y-6242000I-38100J0D01*
G01*
X6669900Y-6242000D02*
G75*
G02*
X6746100Y-6242000I38100J0D01*
G01*
X8238100Y-11900001D02*
G75*
G02*
X8161900Y-11900001I-38100J0D01*
G01*
X8161900Y-11900001D02*
G75*
G02*
X8238100Y-11900001I38100J0D01*
G01*
X8238100Y-12153715D02*
G75*
G02*
X8161900Y-12153715I-38100J0D01*
G01*
X8161900Y-12153715D02*
G75*
G02*
X8238100Y-12153715I38100J0D01*
G01*
X8238100Y-12407429D02*
G75*
G02*
X8161900Y-12407429I-38100J0D01*
G01*
X8161900Y-12407429D02*
G75*
G02*
X8238100Y-12407429I38100J0D01*
G01*
X8238100Y-12661144D02*
G75*
G02*
X8161900Y-12661144I-38100J0D01*
G01*
X8161900Y-12661144D02*
G75*
G02*
X8238100Y-12661144I38100J0D01*
G01*
X8238100Y-12914858D02*
G75*
G02*
X8161900Y-12914858I-38100J0D01*
G01*
X8161900Y-12914858D02*
G75*
G02*
X8238100Y-12914858I38100J0D01*
G01*
X8238100Y-13168572D02*
G75*
G02*
X8161900Y-13168572I-38100J0D01*
G01*
X8161900Y-13168572D02*
G75*
G02*
X8238100Y-13168572I38100J0D01*
G01*
X8238100Y-13422286D02*
G75*
G02*
X8161900Y-13422286I-38100J0D01*
G01*
X8161900Y-13422286D02*
G75*
G02*
X8238100Y-13422286I38100J0D01*
G01*
X8238100Y-13676001D02*
G75*
G02*
X8161900Y-13676001I-38100J0D01*
G01*
X8161900Y-13676001D02*
G75*
G02*
X8238100Y-13676001I38100J0D01*
G01*
X9511100Y-11900001D02*
G75*
G02*
X9434900Y-11900001I-38100J0D01*
G01*
X9434900Y-11900001D02*
G75*
G02*
X9511100Y-11900001I38100J0D01*
G01*
X9511100Y-12153715D02*
G75*
G02*
X9434900Y-12153715I-38100J0D01*
G01*
X9434900Y-12153715D02*
G75*
G02*
X9511100Y-12153715I38100J0D01*
G01*
X9511100Y-12407429D02*
G75*
G02*
X9434900Y-12407429I-38100J0D01*
G01*
X9434900Y-12407429D02*
G75*
G02*
X9511100Y-12407429I38100J0D01*
G01*
X9511100Y-12661144D02*
G75*
G02*
X9434900Y-12661144I-38100J0D01*
G01*
X9434900Y-12661144D02*
G75*
G02*
X9511100Y-12661144I38100J0D01*
G01*
X9511100Y-12914858D02*
G75*
G02*
X9434900Y-12914858I-38100J0D01*
G01*
X9434900Y-12914858D02*
G75*
G02*
X9511100Y-12914858I38100J0D01*
G01*
X9511100Y-13168572D02*
G75*
G02*
X9434900Y-13168572I-38100J0D01*
G01*
X9434900Y-13168572D02*
G75*
G02*
X9511100Y-13168572I38100J0D01*
G01*
X9511100Y-13422286D02*
G75*
G02*
X9434900Y-13422286I-38100J0D01*
G01*
X9434900Y-13422286D02*
G75*
G02*
X9511100Y-13422286I38100J0D01*
G01*
X9511100Y-13676001D02*
G75*
G02*
X9434900Y-13676001I-38100J0D01*
G01*
X9434900Y-13676001D02*
G75*
G02*
X9511100Y-13676001I38100J0D01*
G01*
X10513100Y-11900000D02*
G75*
G02*
X10436900Y-11900000I-38100J0D01*
G01*
X10436900Y-11900000D02*
G75*
G02*
X10513100Y-11900000I38100J0D01*
G01*
X10513100Y-12154000D02*
G75*
G02*
X10436900Y-12154000I-38100J0D01*
G01*
X10436900Y-12154000D02*
G75*
G02*
X10513100Y-12154000I38100J0D01*
G01*
X10513100Y-12408000D02*
G75*
G02*
X10436900Y-12408000I-38100J0D01*
G01*
X10436900Y-12408000D02*
G75*
G02*
X10513100Y-12408000I38100J0D01*
G01*
X10513100Y-13026000D02*
G75*
G02*
X10436900Y-13026000I-38100J0D01*
G01*
X10436900Y-13026000D02*
G75*
G02*
X10513100Y-13026000I38100J0D01*
G01*
X10513100Y-13280000D02*
G75*
G02*
X10436900Y-13280000I-38100J0D01*
G01*
X10436900Y-13280000D02*
G75*
G02*
X10513100Y-13280000I38100J0D01*
G01*
X10513100Y-13534000D02*
G75*
G02*
X10436900Y-13534000I-38100J0D01*
G01*
X10436900Y-13534000D02*
G75*
G02*
X10513100Y-13534000I38100J0D01*
G01*
X11713100Y-9150000D02*
G75*
G02*
X11636900Y-9150000I-38100J0D01*
G01*
X11636900Y-9150000D02*
G75*
G02*
X11713100Y-9150000I38100J0D01*
G01*
X11713100Y-9404000D02*
G75*
G02*
X11636900Y-9404000I-38100J0D01*
G01*
X11636900Y-9404000D02*
G75*
G02*
X11713100Y-9404000I38100J0D01*
G01*
X11713100Y-9658000D02*
G75*
G02*
X11636900Y-9658000I-38100J0D01*
G01*
X11636900Y-9658000D02*
G75*
G02*
X11713100Y-9658000I38100J0D01*
G01*
X11713100Y-9912000D02*
G75*
G02*
X11636900Y-9912000I-38100J0D01*
G01*
X11636900Y-9912000D02*
G75*
G02*
X11713100Y-9912000I38100J0D01*
G01*
X11713100Y-10166000D02*
G75*
G02*
X11636900Y-10166000I-38100J0D01*
G01*
X11636900Y-10166000D02*
G75*
G02*
X11713100Y-10166000I38100J0D01*
G01*
X11713100Y-10420000D02*
G75*
G02*
X11636900Y-10420000I-38100J0D01*
G01*
X11636900Y-10420000D02*
G75*
G02*
X11713100Y-10420000I38100J0D01*
G01*
X12705100Y-11463500D02*
G75*
G02*
X12628900Y-11463500I-38100J0D01*
G01*
X12628900Y-11463500D02*
G75*
G02*
X12705100Y-11463500I38100J0D01*
G01*
X12729100Y-9150000D02*
G75*
G02*
X12652900Y-9150000I-38100J0D01*
G01*
X12652900Y-9150000D02*
G75*
G02*
X12729100Y-9150000I38100J0D01*
G01*
X12729100Y-9404000D02*
G75*
G02*
X12652900Y-9404000I-38100J0D01*
G01*
X12652900Y-9404000D02*
G75*
G02*
X12729100Y-9404000I38100J0D01*
G01*
X12729100Y-9658000D02*
G75*
G02*
X12652900Y-9658000I-38100J0D01*
G01*
X12652900Y-9658000D02*
G75*
G02*
X12729100Y-9658000I38100J0D01*
G01*
X12729100Y-9912000D02*
G75*
G02*
X12652900Y-9912000I-38100J0D01*
G01*
X12652900Y-9912000D02*
G75*
G02*
X12729100Y-9912000I38100J0D01*
G01*
X12729100Y-10166000D02*
G75*
G02*
X12652900Y-10166000I-38100J0D01*
G01*
X12652900Y-10166000D02*
G75*
G02*
X12729100Y-10166000I38100J0D01*
G01*
X12729100Y-10420000D02*
G75*
G02*
X12652900Y-10420000I-38100J0D01*
G01*
X12652900Y-10420000D02*
G75*
G02*
X12729100Y-10420000I38100J0D01*
G01*
X12838100Y-6125000D02*
G75*
G02*
X12761900Y-6125000I-38100J0D01*
G01*
X12761900Y-6125000D02*
G75*
G02*
X12838100Y-6125000I38100J0D01*
G01*
X12838100Y-6379000D02*
G75*
G02*
X12761900Y-6379000I-38100J0D01*
G01*
X12761900Y-6379000D02*
G75*
G02*
X12838100Y-6379000I38100J0D01*
G01*
X12838100Y-6633000D02*
G75*
G02*
X12761900Y-6633000I-38100J0D01*
G01*
X12761900Y-6633000D02*
G75*
G02*
X12838100Y-6633000I38100J0D01*
G01*
X12838100Y-6887000D02*
G75*
G02*
X12761900Y-6887000I-38100J0D01*
G01*
X12761900Y-6887000D02*
G75*
G02*
X12838100Y-6887000I38100J0D01*
G01*
X12838100Y-7141000D02*
G75*
G02*
X12761900Y-7141000I-38100J0D01*
G01*
X12761900Y-7141000D02*
G75*
G02*
X12838100Y-7141000I38100J0D01*
G01*
X12838100Y-7395000D02*
G75*
G02*
X12761900Y-7395000I-38100J0D01*
G01*
X12761900Y-7395000D02*
G75*
G02*
X12838100Y-7395000I38100J0D01*
G01*
X12838100Y-7649000D02*
G75*
G02*
X12761900Y-7649000I-38100J0D01*
G01*
X12761900Y-7649000D02*
G75*
G02*
X12838100Y-7649000I38100J0D01*
G01*
X12838100Y-7903000D02*
G75*
G02*
X12761900Y-7903000I-38100J0D01*
G01*
X12761900Y-7903000D02*
G75*
G02*
X12838100Y-7903000I38100J0D01*
G01*
X12838100Y-8157000D02*
G75*
G02*
X12761900Y-8157000I-38100J0D01*
G01*
X12761900Y-8157000D02*
G75*
G02*
X12838100Y-8157000I38100J0D01*
G01*
X12838100Y-8411000D02*
G75*
G02*
X12761900Y-8411000I-38100J0D01*
G01*
X12761900Y-8411000D02*
G75*
G02*
X12838100Y-8411000I38100J0D01*
G01*
X12959100Y-11463500D02*
G75*
G02*
X12882900Y-11463500I-38100J0D01*
G01*
X12882900Y-11463500D02*
G75*
G02*
X12959100Y-11463500I38100J0D01*
G01*
X13213100Y-11463500D02*
G75*
G02*
X13136900Y-11463500I-38100J0D01*
G01*
X13136900Y-11463500D02*
G75*
G02*
X13213100Y-11463500I38100J0D01*
G01*
X13467100Y-11463500D02*
G75*
G02*
X13390900Y-11463500I-38100J0D01*
G01*
X13390900Y-11463500D02*
G75*
G02*
X13467100Y-11463500I38100J0D01*
G01*
X14432100Y-8276000D02*
G75*
G02*
X14355900Y-8276000I-38100J0D01*
G01*
X14355900Y-8276000D02*
G75*
G02*
X14432100Y-8276000I38100J0D01*
G01*
X14432100Y-8530000D02*
G75*
G02*
X14355900Y-8530000I-38100J0D01*
G01*
X14355900Y-8530000D02*
G75*
G02*
X14432100Y-8530000I38100J0D01*
G01*
X14432100Y-8784000D02*
G75*
G02*
X14355900Y-8784000I-38100J0D01*
G01*
X14355900Y-8784000D02*
G75*
G02*
X14432100Y-8784000I38100J0D01*
G01*
X14432100Y-9038000D02*
G75*
G02*
X14355900Y-9038000I-38100J0D01*
G01*
X14355900Y-9038000D02*
G75*
G02*
X14432100Y-9038000I38100J0D01*
G01*
X14432100Y-9292000D02*
G75*
G02*
X14355900Y-9292000I-38100J0D01*
G01*
X14355900Y-9292000D02*
G75*
G02*
X14432100Y-9292000I38100J0D01*
G01*
X14432100Y-9546000D02*
G75*
G02*
X14355900Y-9546000I-38100J0D01*
G01*
X14355900Y-9546000D02*
G75*
G02*
X14432100Y-9546000I38100J0D01*
G01*
X14432100Y-9800000D02*
G75*
G02*
X14355900Y-9800000I-38100J0D01*
G01*
X14355900Y-9800000D02*
G75*
G02*
X14432100Y-9800000I38100J0D01*
G01*
X6350000Y-7060000D02*
X6350000Y-7140000D01*
X6310000Y-7100000D02*
X6390000Y-7100000D01*
X6350000Y-7310000D02*
X6350000Y-7390000D01*
X6310000Y-7350000D02*
X6390000Y-7350000D01*
X6575000Y-10085000D02*
X6575000Y-10165000D01*
X6535000Y-10125000D02*
X6615000Y-10125000D01*
X6575000Y-11101000D02*
X6575000Y-11181000D01*
X6535000Y-11141000D02*
X6615000Y-11141000D01*
X7050000Y-6085000D02*
X7050000Y-6165000D01*
X7010000Y-6125000D02*
X7090000Y-6125000D01*
X7050000Y-7101000D02*
X7050000Y-7181000D01*
X7010000Y-7141000D02*
X7090000Y-7141000D01*
X7075000Y-10085000D02*
X7075000Y-10165000D01*
X7035000Y-10125000D02*
X7115000Y-10125000D01*
X7075000Y-11101000D02*
X7075000Y-11181000D01*
X7035000Y-11141000D02*
X7115000Y-11141000D01*
X7492200Y-6090000D02*
X7492200Y-6170000D01*
X7452200Y-6130000D02*
X7532200Y-6130000D01*
X7492200Y-7106000D02*
X7492200Y-7186000D01*
X7452200Y-7146000D02*
X7532200Y-7146000D01*
X7575000Y-13341760D02*
X7575000Y-13421760D01*
X7535000Y-13381760D02*
X7615000Y-13381760D01*
X7575000Y-13591760D02*
X7575000Y-13671760D01*
X7535000Y-13631760D02*
X7615000Y-13631760D01*
X11200000Y-11960000D02*
X11200000Y-12040000D01*
X11160000Y-12000000D02*
X11240000Y-12000000D01*
X11200000Y-12160000D02*
X11200000Y-12240000D01*
X11160000Y-12200000D02*
X11240000Y-12200000D01*
X11225000Y-13035000D02*
X11225000Y-13115000D01*
X11185000Y-13075000D02*
X11265000Y-13075000D01*
X11225000Y-13235000D02*
X11225000Y-13315000D01*
X11185000Y-13275000D02*
X11265000Y-13275000D01*
X11300000Y-9035000D02*
X11300000Y-9115000D01*
X11260000Y-9075000D02*
X11340000Y-9075000D01*
X11300000Y-9285000D02*
X11300000Y-9365000D01*
X11260000Y-9325000D02*
X11340000Y-9325000D01*
X12650000Y-10860000D02*
X12650000Y-10940000D01*
X12610000Y-10900000D02*
X12690000Y-10900000D01*
X12900000Y-10860000D02*
X12900000Y-10940000D01*
X12860000Y-10900000D02*
X12940000Y-10900000D01*
X13125000Y-9610000D02*
X13125000Y-9690000D01*
X13085000Y-9650000D02*
X13165000Y-9650000D01*
X13125000Y-9860000D02*
X13125000Y-9940000D01*
X13085000Y-9900000D02*
X13165000Y-9900000D01*
X13375000Y-8110000D02*
X13375000Y-8190000D01*
X13335000Y-8150000D02*
X13415000Y-8150000D01*
X13375000Y-8360000D02*
X13375000Y-8440000D01*
X13335000Y-8400000D02*
X13415000Y-8400000D01*
X13950000Y-8485000D02*
X13950000Y-8565000D01*
X13910000Y-8525000D02*
X13990000Y-8525000D01*
X13950000Y-8735000D02*
X13950000Y-8815000D01*
X13910000Y-8775000D02*
X13990000Y-8775000D01*
X5775356Y-10216356D02*
X5775356Y-10145644D01*
X5704644Y-10145644D01*
X5704644Y-10216356D01*
X5775356Y-10216356D01*
X5775356Y-10470356D02*
X5775356Y-10399644D01*
X5704644Y-10399644D01*
X5704644Y-10470356D01*
X5775356Y-10470356D01*
X5775356Y-10724356D02*
X5775356Y-10653644D01*
X5704644Y-10653644D01*
X5704644Y-10724356D01*
X5775356Y-10724356D01*
X5775356Y-10978356D02*
X5775356Y-10907644D01*
X5704644Y-10907644D01*
X5704644Y-10978356D01*
X5775356Y-10978356D01*
X5785356Y-6890356D02*
X5785356Y-6819644D01*
X5714644Y-6819644D01*
X5714644Y-6890356D01*
X5785356Y-6890356D01*
X5785356Y-7144356D02*
X5785356Y-7073644D01*
X5714644Y-7073644D01*
X5714644Y-7144356D01*
X5785356Y-7144356D01*
X5785356Y-7398356D02*
X5785356Y-7327644D01*
X5714644Y-7327644D01*
X5714644Y-7398356D01*
X5785356Y-7398356D01*
X5785356Y-8010356D02*
X5785356Y-7939644D01*
X5714644Y-7939644D01*
X5714644Y-8010356D01*
X5785356Y-8010356D01*
X5785356Y-8264356D02*
X5785356Y-8193644D01*
X5714644Y-8193644D01*
X5714644Y-8264356D01*
X5785356Y-8264356D01*
X5785356Y-8518356D02*
X5785356Y-8447644D01*
X5714644Y-8447644D01*
X5714644Y-8518356D01*
X5785356Y-8518356D01*
X5785356Y-9185356D02*
X5785356Y-9114644D01*
X5714644Y-9114644D01*
X5714644Y-9185356D01*
X5785356Y-9185356D01*
X5785356Y-9439356D02*
X5785356Y-9368644D01*
X5714644Y-9368644D01*
X5714644Y-9439356D01*
X5785356Y-9439356D01*
X5785356Y-9693356D02*
X5785356Y-9622644D01*
X5714644Y-9622644D01*
X5714644Y-9693356D01*
X5785356Y-9693356D01*
X5785356Y-11785356D02*
X5785356Y-11714644D01*
X5714644Y-11714644D01*
X5714644Y-11785356D01*
X5785356Y-11785356D01*
X5785356Y-12039356D02*
X5785356Y-11968644D01*
X5714644Y-11968644D01*
X5714644Y-12039356D01*
X5785356Y-12039356D01*
X5785356Y-12293356D02*
X5785356Y-12222644D01*
X5714644Y-12222644D01*
X5714644Y-12293356D01*
X5785356Y-12293356D01*
X5785356Y-12547356D02*
X5785356Y-12476644D01*
X5714644Y-12476644D01*
X5714644Y-12547356D01*
X5785356Y-12547356D01*
X5810356Y-13435356D02*
X5810356Y-13364644D01*
X5739644Y-13364644D01*
X5739644Y-13435356D01*
X5810356Y-13435356D01*
X5810356Y-13689356D02*
X5810356Y-13618644D01*
X5739644Y-13618644D01*
X5739644Y-13689356D01*
X5810356Y-13689356D01*
X6471606Y-13435356D02*
X6471606Y-13364644D01*
X6400894Y-13364644D01*
X6400894Y-13435356D01*
X6471606Y-13435356D01*
X6471606Y-13689356D02*
X6471606Y-13618644D01*
X6400894Y-13618644D01*
X6400894Y-13689356D01*
X6471606Y-13689356D01*
X6485356Y-12035356D02*
X6485356Y-11964644D01*
X6414644Y-11964644D01*
X6414644Y-12035356D01*
X6485356Y-12035356D01*
X7035356Y-11810356D02*
X7035356Y-11739644D01*
X6964644Y-11739644D01*
X6964644Y-11810356D01*
X7035356Y-11810356D01*
X7035356Y-12064356D02*
X7035356Y-11993644D01*
X6964644Y-11993644D01*
X6964644Y-12064356D01*
X7035356Y-12064356D01*
X7035356Y-12318356D02*
X7035356Y-12247644D01*
X6964644Y-12247644D01*
X6964644Y-12318356D01*
X7035356Y-12318356D01*
X7035356Y-12572356D02*
X7035356Y-12501644D01*
X6964644Y-12501644D01*
X6964644Y-12572356D01*
X7035356Y-12572356D01*
X7685356Y-12060356D02*
X7685356Y-11989644D01*
X7614644Y-11989644D01*
X7614644Y-12060356D01*
X7685356Y-12060356D01*
X8023356Y-6085356D02*
X8023356Y-6014644D01*
X7952644Y-6014644D01*
X7952644Y-6085356D01*
X8023356Y-6085356D01*
X8023356Y-6339356D02*
X8023356Y-6268644D01*
X7952644Y-6268644D01*
X7952644Y-6339356D01*
X8023356Y-6339356D01*
X8023356Y-6593356D02*
X8023356Y-6522644D01*
X7952644Y-6522644D01*
X7952644Y-6593356D01*
X8023356Y-6593356D01*
X13360356Y-10902356D02*
X13360356Y-10831644D01*
X13289644Y-10831644D01*
X13289644Y-10902356D01*
X13360356Y-10902356D01*
X13785356Y-10910356D02*
X13785356Y-10839644D01*
X13714644Y-10839644D01*
X13714644Y-10910356D01*
X13785356Y-10910356D01*
X14885356Y-12560356D02*
X14885356Y-12489644D01*
X14814644Y-12489644D01*
X14814644Y-12560356D01*
X14885356Y-12560356D01*
X14885356Y-12814356D02*
X14885356Y-12743644D01*
X14814644Y-12743644D01*
X14814644Y-12814356D01*
X14885356Y-12814356D01*
D12*
X8697000Y-6038000D02*
X8748000Y-5987000D01*
X8697000Y-5936000D01*
X8646000Y-5987000D01*
X8697000Y-6038000D01*
X8697000Y-6292000D02*
X8748000Y-6241000D01*
X8697000Y-6190000D01*
X8646000Y-6241000D01*
X8697000Y-6292000D01*
X8697000Y-6546000D02*
X8748000Y-6495000D01*
X8697000Y-6444000D01*
X8646000Y-6495000D01*
X8697000Y-6546000D01*
X8697000Y-6800000D02*
X8748000Y-6749000D01*
X8697000Y-6698000D01*
X8646000Y-6749000D01*
X8697000Y-6800000D01*
X8697000Y-7054000D02*
X8748000Y-7003000D01*
X8697000Y-6952000D01*
X8646000Y-7003000D01*
X8697000Y-7054000D01*
X8697000Y-7308000D02*
X8748000Y-7257000D01*
X8697000Y-7206000D01*
X8646000Y-7257000D01*
X8697000Y-7308000D01*
X8697000Y-7562000D02*
X8748000Y-7511000D01*
X8697000Y-7460000D01*
X8646000Y-7511000D01*
X8697000Y-7562000D01*
X8697000Y-7816000D02*
X8748000Y-7765000D01*
X8697000Y-7714000D01*
X8646000Y-7765000D01*
X8697000Y-7816000D01*
X8697000Y-8070000D02*
X8748000Y-8019000D01*
X8697000Y-7968000D01*
X8646000Y-8019000D01*
X8697000Y-8070000D01*
X8697000Y-8324000D02*
X8748000Y-8273000D01*
X8697000Y-8222000D01*
X8646000Y-8273000D01*
X8697000Y-8324000D01*
X8697000Y-8578000D02*
X8748000Y-8527000D01*
X8697000Y-8476000D01*
X8646000Y-8527000D01*
X8697000Y-8578000D01*
X8697000Y-8832000D02*
X8748000Y-8781000D01*
X8697000Y-8730000D01*
X8646000Y-8781000D01*
X8697000Y-8832000D01*
X8697000Y-9086000D02*
X8748000Y-9035000D01*
X8697000Y-8984000D01*
X8646000Y-9035000D01*
X8697000Y-9086000D01*
X8697000Y-9340000D02*
X8748000Y-9289000D01*
X8697000Y-9238000D01*
X8646000Y-9289000D01*
X8697000Y-9340000D01*
X8697000Y-9594000D02*
X8748000Y-9543000D01*
X8697000Y-9492000D01*
X8646000Y-9543000D01*
X8697000Y-9594000D01*
X8697000Y-9848000D02*
X8748000Y-9797000D01*
X8697000Y-9746000D01*
X8646000Y-9797000D01*
X8697000Y-9848000D01*
X8697000Y-10102000D02*
X8748000Y-10051000D01*
X8697000Y-10000000D01*
X8646000Y-10051000D01*
X8697000Y-10102000D01*
X8697000Y-10356000D02*
X8748000Y-10305000D01*
X8697000Y-10254000D01*
X8646000Y-10305000D01*
X8697000Y-10356000D01*
X8697000Y-10610000D02*
X8748000Y-10559000D01*
X8697000Y-10508000D01*
X8646000Y-10559000D01*
X8697000Y-10610000D01*
X8697000Y-10864000D02*
X8748000Y-10813000D01*
X8697000Y-10762000D01*
X8646000Y-10813000D01*
X8697000Y-10864000D01*
X9332000Y-10841000D02*
X9383000Y-10790000D01*
X9332000Y-10739000D01*
X9281000Y-10790000D01*
X9332000Y-10841000D01*
X9586000Y-10841000D02*
X9637000Y-10790000D01*
X9586000Y-10739000D01*
X9535000Y-10790000D01*
X9586000Y-10841000D01*
X9840000Y-10841000D02*
X9891000Y-10790000D01*
X9840000Y-10739000D01*
X9789000Y-10790000D01*
X9840000Y-10841000D01*
X10475000Y-6038000D02*
X10526000Y-5987000D01*
X10475000Y-5936000D01*
X10424000Y-5987000D01*
X10475000Y-6038000D01*
X10475000Y-6292000D02*
X10526000Y-6241000D01*
X10475000Y-6190000D01*
X10424000Y-6241000D01*
X10475000Y-6292000D01*
X10475000Y-6546000D02*
X10526000Y-6495000D01*
X10475000Y-6444000D01*
X10424000Y-6495000D01*
X10475000Y-6546000D01*
X10475000Y-6800000D02*
X10526000Y-6749000D01*
X10475000Y-6698000D01*
X10424000Y-6749000D01*
X10475000Y-6800000D01*
X10475000Y-7054000D02*
X10526000Y-7003000D01*
X10475000Y-6952000D01*
X10424000Y-7003000D01*
X10475000Y-7054000D01*
X10475000Y-7308000D02*
X10526000Y-7257000D01*
X10475000Y-7206000D01*
X10424000Y-7257000D01*
X10475000Y-7308000D01*
X10475000Y-7562000D02*
X10526000Y-7511000D01*
X10475000Y-7460000D01*
X10424000Y-7511000D01*
X10475000Y-7562000D01*
X10475000Y-7816000D02*
X10526000Y-7765000D01*
X10475000Y-7714000D01*
X10424000Y-7765000D01*
X10475000Y-7816000D01*
X10475000Y-8070000D02*
X10526000Y-8019000D01*
X10475000Y-7968000D01*
X10424000Y-8019000D01*
X10475000Y-8070000D01*
X10475000Y-8324000D02*
X10526000Y-8273000D01*
X10475000Y-8222000D01*
X10424000Y-8273000D01*
X10475000Y-8324000D01*
X10475000Y-8578000D02*
X10526000Y-8527000D01*
X10475000Y-8476000D01*
X10424000Y-8527000D01*
X10475000Y-8578000D01*
X10475000Y-8832000D02*
X10526000Y-8781000D01*
X10475000Y-8730000D01*
X10424000Y-8781000D01*
X10475000Y-8832000D01*
X10475000Y-9086000D02*
X10526000Y-9035000D01*
X10475000Y-8984000D01*
X10424000Y-9035000D01*
X10475000Y-9086000D01*
X10475000Y-9340000D02*
X10526000Y-9289000D01*
X10475000Y-9238000D01*
X10424000Y-9289000D01*
X10475000Y-9340000D01*
X10475000Y-9594000D02*
X10526000Y-9543000D01*
X10475000Y-9492000D01*
X10424000Y-9543000D01*
X10475000Y-9594000D01*
X10475000Y-9848000D02*
X10526000Y-9797000D01*
X10475000Y-9746000D01*
X10424000Y-9797000D01*
X10475000Y-9848000D01*
X10475000Y-10102000D02*
X10526000Y-10051000D01*
X10475000Y-10000000D01*
X10424000Y-10051000D01*
X10475000Y-10102000D01*
X10475000Y-10356000D02*
X10526000Y-10305000D01*
X10475000Y-10254000D01*
X10424000Y-10305000D01*
X10475000Y-10356000D01*
X10475000Y-10610000D02*
X10526000Y-10559000D01*
X10475000Y-10508000D01*
X10424000Y-10559000D01*
X10475000Y-10610000D01*
X10475000Y-10864000D02*
X10526000Y-10813000D01*
X10475000Y-10762000D01*
X10424000Y-10813000D01*
X10475000Y-10864000D01*
D13*
X6395000Y-8570000D02*
X6505000Y-8680000D01*
X6505000Y-8570000D02*
X6395000Y-8680000D01*
X6505000Y-8625000D02*
G75*
G02*
X6395000Y-8625000I-55000J0D01*
G01*
X6395000Y-8625000D02*
G75*
G02*
X6505000Y-8625000I55000J0D01*
G01*
X6420000Y-9245000D02*
X6530000Y-9355000D01*
X6530000Y-9245000D02*
X6420000Y-9355000D01*
X6530000Y-9300000D02*
G75*
G02*
X6420000Y-9300000I-55000J0D01*
G01*
X6420000Y-9300000D02*
G75*
G02*
X6530000Y-9300000I55000J0D01*
G01*
X7411000Y-8570000D02*
X7521000Y-8680000D01*
X7521000Y-8570000D02*
X7411000Y-8680000D01*
X7521000Y-8625000D02*
G75*
G02*
X7411000Y-8625000I-55000J0D01*
G01*
X7411000Y-8625000D02*
G75*
G02*
X7521000Y-8625000I55000J0D01*
G01*
X7436000Y-9245000D02*
X7546000Y-9355000D01*
X7546000Y-9245000D02*
X7436000Y-9355000D01*
X7546000Y-9300000D02*
G75*
G02*
X7436000Y-9300000I-55000J0D01*
G01*
X7436000Y-9300000D02*
G75*
G02*
X7546000Y-9300000I55000J0D01*
G01*
D14*
X14665000Y-10315000D02*
X15035000Y-10685000D01*
X15035000Y-10315000D02*
X14665000Y-10685000D01*
X14850000Y-10315000D02*
X14850000Y-10685000D01*
X14665000Y-10500000D02*
X15035000Y-10500000D01*
X14665000Y-13265000D02*
X15035000Y-13635000D01*
X15035000Y-13265000D02*
X14665000Y-13635000D01*
X14850000Y-13265000D02*
X14850000Y-13635000D01*
X14665000Y-13450000D02*
X15035000Y-13450000D01*
D11*
X5755777Y-14216484D02*
X5755777Y-14016484D01*
X5755777Y-14016484D02*
X5803396Y-14016484D01*
X5803396Y-14016484D02*
X5831967Y-14026008D01*
X5831967Y-14026008D02*
X5851015Y-14045055D01*
X5851015Y-14045055D02*
X5860539Y-14064103D01*
X5860539Y-14064103D02*
X5870062Y-14102198D01*
X5870062Y-14102198D02*
X5870062Y-14130769D01*
X5870062Y-14130769D02*
X5860539Y-14168865D01*
X5860539Y-14168865D02*
X5851015Y-14187912D01*
X5851015Y-14187912D02*
X5831967Y-14206960D01*
X5831967Y-14206960D02*
X5803396Y-14216484D01*
X5803396Y-14216484D02*
X5755777Y-14216484D01*
X5955777Y-14216484D02*
X5955777Y-14083150D01*
X5955777Y-14121246D02*
X5965301Y-14102198D01*
X5965301Y-14102198D02*
X5974824Y-14092674D01*
X5974824Y-14092674D02*
X5993872Y-14083150D01*
X5993872Y-14083150D02*
X6012920Y-14083150D01*
X6079586Y-14216484D02*
X6079586Y-14083150D01*
X6079586Y-14016484D02*
X6070062Y-14026008D01*
X6070062Y-14026008D02*
X6079586Y-14035531D01*
X6079586Y-14035531D02*
X6089110Y-14026008D01*
X6089110Y-14026008D02*
X6079586Y-14016484D01*
X6079586Y-14016484D02*
X6079586Y-14035531D01*
X6203396Y-14216484D02*
X6184348Y-14206960D01*
X6184348Y-14206960D02*
X6174824Y-14187912D01*
X6174824Y-14187912D02*
X6174824Y-14016484D01*
X6308158Y-14216484D02*
X6289110Y-14206960D01*
X6289110Y-14206960D02*
X6279586Y-14187912D01*
X6279586Y-14187912D02*
X6279586Y-14016484D01*
X6536729Y-14216484D02*
X6536729Y-14016484D01*
X6536729Y-14016484D02*
X6603396Y-14159341D01*
X6603396Y-14159341D02*
X6670062Y-14016484D01*
X6670062Y-14016484D02*
X6670062Y-14216484D01*
X6851015Y-14216484D02*
X6851015Y-14111722D01*
X6851015Y-14111722D02*
X6841491Y-14092674D01*
X6841491Y-14092674D02*
X6822443Y-14083150D01*
X6822443Y-14083150D02*
X6784348Y-14083150D01*
X6784348Y-14083150D02*
X6765301Y-14092674D01*
X6851015Y-14206960D02*
X6831967Y-14216484D01*
X6831967Y-14216484D02*
X6784348Y-14216484D01*
X6784348Y-14216484D02*
X6765301Y-14206960D01*
X6765301Y-14206960D02*
X6755777Y-14187912D01*
X6755777Y-14187912D02*
X6755777Y-14168865D01*
X6755777Y-14168865D02*
X6765301Y-14149817D01*
X6765301Y-14149817D02*
X6784348Y-14140293D01*
X6784348Y-14140293D02*
X6831967Y-14140293D01*
X6831967Y-14140293D02*
X6851015Y-14130769D01*
X6946253Y-14083150D02*
X6946253Y-14283150D01*
X6946253Y-14092674D02*
X6965301Y-14083150D01*
X6965301Y-14083150D02*
X7003396Y-14083150D01*
X7003396Y-14083150D02*
X7022443Y-14092674D01*
X7022443Y-14092674D02*
X7031967Y-14102198D01*
X7031967Y-14102198D02*
X7041491Y-14121246D01*
X7041491Y-14121246D02*
X7041491Y-14178388D01*
X7041491Y-14178388D02*
X7031967Y-14197436D01*
X7031967Y-14197436D02*
X7022443Y-14206960D01*
X7022443Y-14206960D02*
X7003396Y-14216484D01*
X7003396Y-14216484D02*
X6965301Y-14216484D01*
X6965301Y-14216484D02*
X6946253Y-14206960D01*
X7127205Y-14197436D02*
X7136729Y-14206960D01*
X7136729Y-14206960D02*
X7127205Y-14216484D01*
X7127205Y-14216484D02*
X7117682Y-14206960D01*
X7117682Y-14206960D02*
X7127205Y-14197436D01*
X7127205Y-14197436D02*
X7127205Y-14216484D01*
X7127205Y-14092674D02*
X7136729Y-14102198D01*
X7136729Y-14102198D02*
X7127205Y-14111722D01*
X7127205Y-14111722D02*
X7117682Y-14102198D01*
X7117682Y-14102198D02*
X7127205Y-14092674D01*
X7127205Y-14092674D02*
X7127205Y-14111722D01*
D10*
X5455000Y-14525000D02*
X5495000Y-14565000D01*
X5495000Y-14525000D02*
X5455000Y-14565000D01*
D11*
X5793872Y-14436484D02*
X5812920Y-14436484D01*
X5812920Y-14436484D02*
X5831967Y-14446008D01*
X5831967Y-14446008D02*
X5841491Y-14455531D01*
X5841491Y-14455531D02*
X5851015Y-14474579D01*
X5851015Y-14474579D02*
X5860539Y-14512674D01*
X5860539Y-14512674D02*
X5860539Y-14560293D01*
X5860539Y-14560293D02*
X5851015Y-14598388D01*
X5851015Y-14598388D02*
X5841491Y-14617436D01*
X5841491Y-14617436D02*
X5831967Y-14626960D01*
X5831967Y-14626960D02*
X5812920Y-14636484D01*
X5812920Y-14636484D02*
X5793872Y-14636484D01*
X5793872Y-14636484D02*
X5774824Y-14626960D01*
X5774824Y-14626960D02*
X5765301Y-14617436D01*
X5765301Y-14617436D02*
X5755777Y-14598388D01*
X5755777Y-14598388D02*
X5746253Y-14560293D01*
X5746253Y-14560293D02*
X5746253Y-14512674D01*
X5746253Y-14512674D02*
X5755777Y-14474579D01*
X5755777Y-14474579D02*
X5765301Y-14455531D01*
X5765301Y-14455531D02*
X5774824Y-14446008D01*
X5774824Y-14446008D02*
X5793872Y-14436484D01*
X5946253Y-14617436D02*
X5955777Y-14626960D01*
X5955777Y-14626960D02*
X5946253Y-14636484D01*
X5946253Y-14636484D02*
X5936729Y-14626960D01*
X5936729Y-14626960D02*
X5946253Y-14617436D01*
X5946253Y-14617436D02*
X5946253Y-14636484D01*
X6127205Y-14503150D02*
X6127205Y-14636484D01*
X6079586Y-14426960D02*
X6031967Y-14569817D01*
X6031967Y-14569817D02*
X6155777Y-14569817D01*
X6270062Y-14436484D02*
X6289110Y-14436484D01*
X6289110Y-14436484D02*
X6308158Y-14446008D01*
X6308158Y-14446008D02*
X6317682Y-14455531D01*
X6317682Y-14455531D02*
X6327205Y-14474579D01*
X6327205Y-14474579D02*
X6336729Y-14512674D01*
X6336729Y-14512674D02*
X6336729Y-14560293D01*
X6336729Y-14560293D02*
X6327205Y-14598388D01*
X6327205Y-14598388D02*
X6317682Y-14617436D01*
X6317682Y-14617436D02*
X6308158Y-14626960D01*
X6308158Y-14626960D02*
X6289110Y-14636484D01*
X6289110Y-14636484D02*
X6270062Y-14636484D01*
X6270062Y-14636484D02*
X6251015Y-14626960D01*
X6251015Y-14626960D02*
X6241491Y-14617436D01*
X6241491Y-14617436D02*
X6231967Y-14598388D01*
X6231967Y-14598388D02*
X6222443Y-14560293D01*
X6222443Y-14560293D02*
X6222443Y-14512674D01*
X6222443Y-14512674D02*
X6231967Y-14474579D01*
X6231967Y-14474579D02*
X6241491Y-14455531D01*
X6241491Y-14455531D02*
X6251015Y-14446008D01*
X6251015Y-14446008D02*
X6270062Y-14436484D01*
X6460539Y-14436484D02*
X6479586Y-14436484D01*
X6479586Y-14436484D02*
X6498634Y-14446008D01*
X6498634Y-14446008D02*
X6508158Y-14455531D01*
X6508158Y-14455531D02*
X6517682Y-14474579D01*
X6517682Y-14474579D02*
X6527205Y-14512674D01*
X6527205Y-14512674D02*
X6527205Y-14560293D01*
X6527205Y-14560293D02*
X6517682Y-14598388D01*
X6517682Y-14598388D02*
X6508158Y-14617436D01*
X6508158Y-14617436D02*
X6498634Y-14626960D01*
X6498634Y-14626960D02*
X6479586Y-14636484D01*
X6479586Y-14636484D02*
X6460539Y-14636484D01*
X6460539Y-14636484D02*
X6441491Y-14626960D01*
X6441491Y-14626960D02*
X6431967Y-14617436D01*
X6431967Y-14617436D02*
X6422443Y-14598388D01*
X6422443Y-14598388D02*
X6412920Y-14560293D01*
X6412920Y-14560293D02*
X6412920Y-14512674D01*
X6412920Y-14512674D02*
X6422443Y-14474579D01*
X6422443Y-14474579D02*
X6431967Y-14455531D01*
X6431967Y-14455531D02*
X6441491Y-14446008D01*
X6441491Y-14446008D02*
X6460539Y-14436484D01*
X6612920Y-14636484D02*
X6612920Y-14503150D01*
X6612920Y-14522198D02*
X6622443Y-14512674D01*
X6622443Y-14512674D02*
X6641491Y-14503150D01*
X6641491Y-14503150D02*
X6670063Y-14503150D01*
X6670063Y-14503150D02*
X6689110Y-14512674D01*
X6689110Y-14512674D02*
X6698634Y-14531722D01*
X6698634Y-14531722D02*
X6698634Y-14636484D01*
X6698634Y-14531722D02*
X6708158Y-14512674D01*
X6708158Y-14512674D02*
X6727205Y-14503150D01*
X6727205Y-14503150D02*
X6755777Y-14503150D01*
X6755777Y-14503150D02*
X6774824Y-14512674D01*
X6774824Y-14512674D02*
X6784348Y-14531722D01*
X6784348Y-14531722D02*
X6784348Y-14636484D01*
X6879586Y-14636484D02*
X6879586Y-14503150D01*
X6879586Y-14522198D02*
X6889110Y-14512674D01*
X6889110Y-14512674D02*
X6908158Y-14503150D01*
X6908158Y-14503150D02*
X6936729Y-14503150D01*
X6936729Y-14503150D02*
X6955777Y-14512674D01*
X6955777Y-14512674D02*
X6965301Y-14531722D01*
X6965301Y-14531722D02*
X6965301Y-14636484D01*
X6965301Y-14531722D02*
X6974824Y-14512674D01*
X6974824Y-14512674D02*
X6993872Y-14503150D01*
X6993872Y-14503150D02*
X7022443Y-14503150D01*
X7022443Y-14503150D02*
X7041491Y-14512674D01*
X7041491Y-14512674D02*
X7051015Y-14531722D01*
X7051015Y-14531722D02*
X7051015Y-14636484D01*
X7441491Y-14426960D02*
X7270063Y-14684103D01*
X7698634Y-14436484D02*
X7717682Y-14436484D01*
X7717682Y-14436484D02*
X7736729Y-14446008D01*
X7736729Y-14446008D02*
X7746253Y-14455531D01*
X7746253Y-14455531D02*
X7755777Y-14474579D01*
X7755777Y-14474579D02*
X7765301Y-14512674D01*
X7765301Y-14512674D02*
X7765301Y-14560293D01*
X7765301Y-14560293D02*
X7755777Y-14598388D01*
X7755777Y-14598388D02*
X7746253Y-14617436D01*
X7746253Y-14617436D02*
X7736729Y-14626960D01*
X7736729Y-14626960D02*
X7717682Y-14636484D01*
X7717682Y-14636484D02*
X7698634Y-14636484D01*
X7698634Y-14636484D02*
X7679586Y-14626960D01*
X7679586Y-14626960D02*
X7670063Y-14617436D01*
X7670063Y-14617436D02*
X7660539Y-14598388D01*
X7660539Y-14598388D02*
X7651015Y-14560293D01*
X7651015Y-14560293D02*
X7651015Y-14512674D01*
X7651015Y-14512674D02*
X7660539Y-14474579D01*
X7660539Y-14474579D02*
X7670063Y-14455531D01*
X7670063Y-14455531D02*
X7679586Y-14446008D01*
X7679586Y-14446008D02*
X7698634Y-14436484D01*
X7851015Y-14617436D02*
X7860539Y-14626960D01*
X7860539Y-14626960D02*
X7851015Y-14636484D01*
X7851015Y-14636484D02*
X7841491Y-14626960D01*
X7841491Y-14626960D02*
X7851015Y-14617436D01*
X7851015Y-14617436D02*
X7851015Y-14636484D01*
X7984348Y-14436484D02*
X8003396Y-14436484D01*
X8003396Y-14436484D02*
X8022444Y-14446008D01*
X8022444Y-14446008D02*
X8031967Y-14455531D01*
X8031967Y-14455531D02*
X8041491Y-14474579D01*
X8041491Y-14474579D02*
X8051015Y-14512674D01*
X8051015Y-14512674D02*
X8051015Y-14560293D01*
X8051015Y-14560293D02*
X8041491Y-14598388D01*
X8041491Y-14598388D02*
X8031967Y-14617436D01*
X8031967Y-14617436D02*
X8022444Y-14626960D01*
X8022444Y-14626960D02*
X8003396Y-14636484D01*
X8003396Y-14636484D02*
X7984348Y-14636484D01*
X7984348Y-14636484D02*
X7965301Y-14626960D01*
X7965301Y-14626960D02*
X7955777Y-14617436D01*
X7955777Y-14617436D02*
X7946253Y-14598388D01*
X7946253Y-14598388D02*
X7936729Y-14560293D01*
X7936729Y-14560293D02*
X7936729Y-14512674D01*
X7936729Y-14512674D02*
X7946253Y-14474579D01*
X7946253Y-14474579D02*
X7955777Y-14455531D01*
X7955777Y-14455531D02*
X7965301Y-14446008D01*
X7965301Y-14446008D02*
X7984348Y-14436484D01*
X8241491Y-14636484D02*
X8127206Y-14636484D01*
X8184348Y-14636484D02*
X8184348Y-14436484D01*
X8184348Y-14436484D02*
X8165301Y-14465055D01*
X8165301Y-14465055D02*
X8146253Y-14484103D01*
X8146253Y-14484103D02*
X8127206Y-14493627D01*
X8422444Y-14436484D02*
X8327206Y-14436484D01*
X8327206Y-14436484D02*
X8317682Y-14531722D01*
X8317682Y-14531722D02*
X8327206Y-14522198D01*
X8327206Y-14522198D02*
X8346253Y-14512674D01*
X8346253Y-14512674D02*
X8393872Y-14512674D01*
X8393872Y-14512674D02*
X8412920Y-14522198D01*
X8412920Y-14522198D02*
X8422444Y-14531722D01*
X8422444Y-14531722D02*
X8431968Y-14550769D01*
X8431968Y-14550769D02*
X8431968Y-14598388D01*
X8431968Y-14598388D02*
X8422444Y-14617436D01*
X8422444Y-14617436D02*
X8412920Y-14626960D01*
X8412920Y-14626960D02*
X8393872Y-14636484D01*
X8393872Y-14636484D02*
X8346253Y-14636484D01*
X8346253Y-14636484D02*
X8327206Y-14626960D01*
X8327206Y-14626960D02*
X8317682Y-14617436D01*
X8498634Y-14436484D02*
X8631968Y-14436484D01*
X8631968Y-14436484D02*
X8546253Y-14636484D01*
X8698634Y-14436484D02*
X8698634Y-14474579D01*
X8774825Y-14436484D02*
X8774825Y-14474579D01*
X9070063Y-14712674D02*
X9060539Y-14703150D01*
X9060539Y-14703150D02*
X9041491Y-14674579D01*
X9041491Y-14674579D02*
X9031968Y-14655531D01*
X9031968Y-14655531D02*
X9022444Y-14626960D01*
X9022444Y-14626960D02*
X9012920Y-14579341D01*
X9012920Y-14579341D02*
X9012920Y-14541246D01*
X9012920Y-14541246D02*
X9022444Y-14493627D01*
X9022444Y-14493627D02*
X9031968Y-14465055D01*
X9031968Y-14465055D02*
X9041491Y-14446008D01*
X9041491Y-14446008D02*
X9060539Y-14417436D01*
X9060539Y-14417436D02*
X9070063Y-14407912D01*
X9136730Y-14455531D02*
X9146253Y-14446008D01*
X9146253Y-14446008D02*
X9165301Y-14436484D01*
X9165301Y-14436484D02*
X9212920Y-14436484D01*
X9212920Y-14436484D02*
X9231968Y-14446008D01*
X9231968Y-14446008D02*
X9241491Y-14455531D01*
X9241491Y-14455531D02*
X9251015Y-14474579D01*
X9251015Y-14474579D02*
X9251015Y-14493627D01*
X9251015Y-14493627D02*
X9241491Y-14522198D01*
X9241491Y-14522198D02*
X9127206Y-14636484D01*
X9127206Y-14636484D02*
X9251015Y-14636484D01*
X9422444Y-14503150D02*
X9422444Y-14636484D01*
X9374825Y-14426960D02*
X9327206Y-14569817D01*
X9327206Y-14569817D02*
X9451015Y-14569817D01*
X9679587Y-14636484D02*
X9679587Y-14436484D01*
X9765301Y-14636484D02*
X9765301Y-14531722D01*
X9765301Y-14531722D02*
X9755777Y-14512674D01*
X9755777Y-14512674D02*
X9736730Y-14503150D01*
X9736730Y-14503150D02*
X9708158Y-14503150D01*
X9708158Y-14503150D02*
X9689111Y-14512674D01*
X9689111Y-14512674D02*
X9679587Y-14522198D01*
X9889111Y-14636484D02*
X9870063Y-14626960D01*
X9870063Y-14626960D02*
X9860539Y-14617436D01*
X9860539Y-14617436D02*
X9851015Y-14598388D01*
X9851015Y-14598388D02*
X9851015Y-14541246D01*
X9851015Y-14541246D02*
X9860539Y-14522198D01*
X9860539Y-14522198D02*
X9870063Y-14512674D01*
X9870063Y-14512674D02*
X9889111Y-14503150D01*
X9889111Y-14503150D02*
X9917682Y-14503150D01*
X9917682Y-14503150D02*
X9936730Y-14512674D01*
X9936730Y-14512674D02*
X9946253Y-14522198D01*
X9946253Y-14522198D02*
X9955777Y-14541246D01*
X9955777Y-14541246D02*
X9955777Y-14598388D01*
X9955777Y-14598388D02*
X9946253Y-14617436D01*
X9946253Y-14617436D02*
X9936730Y-14626960D01*
X9936730Y-14626960D02*
X9917682Y-14636484D01*
X9917682Y-14636484D02*
X9889111Y-14636484D01*
X10070063Y-14636484D02*
X10051015Y-14626960D01*
X10051015Y-14626960D02*
X10041492Y-14607912D01*
X10041492Y-14607912D02*
X10041492Y-14436484D01*
X10222444Y-14626960D02*
X10203396Y-14636484D01*
X10203396Y-14636484D02*
X10165301Y-14636484D01*
X10165301Y-14636484D02*
X10146253Y-14626960D01*
X10146253Y-14626960D02*
X10136730Y-14607912D01*
X10136730Y-14607912D02*
X10136730Y-14531722D01*
X10136730Y-14531722D02*
X10146253Y-14512674D01*
X10146253Y-14512674D02*
X10165301Y-14503150D01*
X10165301Y-14503150D02*
X10203396Y-14503150D01*
X10203396Y-14503150D02*
X10222444Y-14512674D01*
X10222444Y-14512674D02*
X10231968Y-14531722D01*
X10231968Y-14531722D02*
X10231968Y-14550769D01*
X10231968Y-14550769D02*
X10136730Y-14569817D01*
X10308158Y-14626960D02*
X10327206Y-14636484D01*
X10327206Y-14636484D02*
X10365301Y-14636484D01*
X10365301Y-14636484D02*
X10384349Y-14626960D01*
X10384349Y-14626960D02*
X10393873Y-14607912D01*
X10393873Y-14607912D02*
X10393873Y-14598388D01*
X10393873Y-14598388D02*
X10384349Y-14579341D01*
X10384349Y-14579341D02*
X10365301Y-14569817D01*
X10365301Y-14569817D02*
X10336730Y-14569817D01*
X10336730Y-14569817D02*
X10317682Y-14560293D01*
X10317682Y-14560293D02*
X10308158Y-14541246D01*
X10308158Y-14541246D02*
X10308158Y-14531722D01*
X10308158Y-14531722D02*
X10317682Y-14512674D01*
X10317682Y-14512674D02*
X10336730Y-14503150D01*
X10336730Y-14503150D02*
X10365301Y-14503150D01*
X10365301Y-14503150D02*
X10384349Y-14512674D01*
X10460539Y-14712674D02*
X10470063Y-14703150D01*
X10470063Y-14703150D02*
X10489111Y-14674579D01*
X10489111Y-14674579D02*
X10498634Y-14655531D01*
X10498634Y-14655531D02*
X10508158Y-14626960D01*
X10508158Y-14626960D02*
X10517682Y-14579341D01*
X10517682Y-14579341D02*
X10517682Y-14541246D01*
X10517682Y-14541246D02*
X10508158Y-14493627D01*
X10508158Y-14493627D02*
X10498634Y-14465055D01*
X10498634Y-14465055D02*
X10489111Y-14446008D01*
X10489111Y-14446008D02*
X10470063Y-14417436D01*
X10470063Y-14417436D02*
X10460539Y-14407912D01*
D10*
X5495000Y-14809000D02*
G75*
G02*
X5418800Y-14809000I-38100J0D01*
G01*
X5418800Y-14809000D02*
G75*
G02*
X5495000Y-14809000I38100J0D01*
G01*
D11*
X5793872Y-14700484D02*
X5812920Y-14700484D01*
X5812920Y-14700484D02*
X5831967Y-14710008D01*
X5831967Y-14710008D02*
X5841491Y-14719531D01*
X5841491Y-14719531D02*
X5851015Y-14738579D01*
X5851015Y-14738579D02*
X5860539Y-14776674D01*
X5860539Y-14776674D02*
X5860539Y-14824293D01*
X5860539Y-14824293D02*
X5851015Y-14862388D01*
X5851015Y-14862388D02*
X5841491Y-14881436D01*
X5841491Y-14881436D02*
X5831967Y-14890960D01*
X5831967Y-14890960D02*
X5812920Y-14900484D01*
X5812920Y-14900484D02*
X5793872Y-14900484D01*
X5793872Y-14900484D02*
X5774824Y-14890960D01*
X5774824Y-14890960D02*
X5765301Y-14881436D01*
X5765301Y-14881436D02*
X5755777Y-14862388D01*
X5755777Y-14862388D02*
X5746253Y-14824293D01*
X5746253Y-14824293D02*
X5746253Y-14776674D01*
X5746253Y-14776674D02*
X5755777Y-14738579D01*
X5755777Y-14738579D02*
X5765301Y-14719531D01*
X5765301Y-14719531D02*
X5774824Y-14710008D01*
X5774824Y-14710008D02*
X5793872Y-14700484D01*
X5946253Y-14881436D02*
X5955777Y-14890960D01*
X5955777Y-14890960D02*
X5946253Y-14900484D01*
X5946253Y-14900484D02*
X5936729Y-14890960D01*
X5936729Y-14890960D02*
X5946253Y-14881436D01*
X5946253Y-14881436D02*
X5946253Y-14900484D01*
X6022443Y-14700484D02*
X6155777Y-14700484D01*
X6155777Y-14700484D02*
X6070062Y-14900484D01*
X6317682Y-14700484D02*
X6279586Y-14700484D01*
X6279586Y-14700484D02*
X6260539Y-14710008D01*
X6260539Y-14710008D02*
X6251015Y-14719531D01*
X6251015Y-14719531D02*
X6231967Y-14748103D01*
X6231967Y-14748103D02*
X6222443Y-14786198D01*
X6222443Y-14786198D02*
X6222443Y-14862388D01*
X6222443Y-14862388D02*
X6231967Y-14881436D01*
X6231967Y-14881436D02*
X6241491Y-14890960D01*
X6241491Y-14890960D02*
X6260539Y-14900484D01*
X6260539Y-14900484D02*
X6298634Y-14900484D01*
X6298634Y-14900484D02*
X6317682Y-14890960D01*
X6317682Y-14890960D02*
X6327205Y-14881436D01*
X6327205Y-14881436D02*
X6336729Y-14862388D01*
X6336729Y-14862388D02*
X6336729Y-14814769D01*
X6336729Y-14814769D02*
X6327205Y-14795722D01*
X6327205Y-14795722D02*
X6317682Y-14786198D01*
X6317682Y-14786198D02*
X6298634Y-14776674D01*
X6298634Y-14776674D02*
X6260539Y-14776674D01*
X6260539Y-14776674D02*
X6241491Y-14786198D01*
X6241491Y-14786198D02*
X6231967Y-14795722D01*
X6231967Y-14795722D02*
X6222443Y-14814769D01*
X6412920Y-14719531D02*
X6422443Y-14710008D01*
X6422443Y-14710008D02*
X6441491Y-14700484D01*
X6441491Y-14700484D02*
X6489110Y-14700484D01*
X6489110Y-14700484D02*
X6508158Y-14710008D01*
X6508158Y-14710008D02*
X6517682Y-14719531D01*
X6517682Y-14719531D02*
X6527205Y-14738579D01*
X6527205Y-14738579D02*
X6527205Y-14757627D01*
X6527205Y-14757627D02*
X6517682Y-14786198D01*
X6517682Y-14786198D02*
X6403396Y-14900484D01*
X6403396Y-14900484D02*
X6527205Y-14900484D01*
X6612920Y-14900484D02*
X6612920Y-14767150D01*
X6612920Y-14786198D02*
X6622443Y-14776674D01*
X6622443Y-14776674D02*
X6641491Y-14767150D01*
X6641491Y-14767150D02*
X6670063Y-14767150D01*
X6670063Y-14767150D02*
X6689110Y-14776674D01*
X6689110Y-14776674D02*
X6698634Y-14795722D01*
X6698634Y-14795722D02*
X6698634Y-14900484D01*
X6698634Y-14795722D02*
X6708158Y-14776674D01*
X6708158Y-14776674D02*
X6727205Y-14767150D01*
X6727205Y-14767150D02*
X6755777Y-14767150D01*
X6755777Y-14767150D02*
X6774824Y-14776674D01*
X6774824Y-14776674D02*
X6784348Y-14795722D01*
X6784348Y-14795722D02*
X6784348Y-14900484D01*
X6879586Y-14900484D02*
X6879586Y-14767150D01*
X6879586Y-14786198D02*
X6889110Y-14776674D01*
X6889110Y-14776674D02*
X6908158Y-14767150D01*
X6908158Y-14767150D02*
X6936729Y-14767150D01*
X6936729Y-14767150D02*
X6955777Y-14776674D01*
X6955777Y-14776674D02*
X6965301Y-14795722D01*
X6965301Y-14795722D02*
X6965301Y-14900484D01*
X6965301Y-14795722D02*
X6974824Y-14776674D01*
X6974824Y-14776674D02*
X6993872Y-14767150D01*
X6993872Y-14767150D02*
X7022443Y-14767150D01*
X7022443Y-14767150D02*
X7041491Y-14776674D01*
X7041491Y-14776674D02*
X7051015Y-14795722D01*
X7051015Y-14795722D02*
X7051015Y-14900484D01*
X7441491Y-14690960D02*
X7270063Y-14948103D01*
X7698634Y-14700484D02*
X7717682Y-14700484D01*
X7717682Y-14700484D02*
X7736729Y-14710008D01*
X7736729Y-14710008D02*
X7746253Y-14719531D01*
X7746253Y-14719531D02*
X7755777Y-14738579D01*
X7755777Y-14738579D02*
X7765301Y-14776674D01*
X7765301Y-14776674D02*
X7765301Y-14824293D01*
X7765301Y-14824293D02*
X7755777Y-14862388D01*
X7755777Y-14862388D02*
X7746253Y-14881436D01*
X7746253Y-14881436D02*
X7736729Y-14890960D01*
X7736729Y-14890960D02*
X7717682Y-14900484D01*
X7717682Y-14900484D02*
X7698634Y-14900484D01*
X7698634Y-14900484D02*
X7679586Y-14890960D01*
X7679586Y-14890960D02*
X7670063Y-14881436D01*
X7670063Y-14881436D02*
X7660539Y-14862388D01*
X7660539Y-14862388D02*
X7651015Y-14824293D01*
X7651015Y-14824293D02*
X7651015Y-14776674D01*
X7651015Y-14776674D02*
X7660539Y-14738579D01*
X7660539Y-14738579D02*
X7670063Y-14719531D01*
X7670063Y-14719531D02*
X7679586Y-14710008D01*
X7679586Y-14710008D02*
X7698634Y-14700484D01*
X7851015Y-14881436D02*
X7860539Y-14890960D01*
X7860539Y-14890960D02*
X7851015Y-14900484D01*
X7851015Y-14900484D02*
X7841491Y-14890960D01*
X7841491Y-14890960D02*
X7851015Y-14881436D01*
X7851015Y-14881436D02*
X7851015Y-14900484D01*
X7984348Y-14700484D02*
X8003396Y-14700484D01*
X8003396Y-14700484D02*
X8022444Y-14710008D01*
X8022444Y-14710008D02*
X8031967Y-14719531D01*
X8031967Y-14719531D02*
X8041491Y-14738579D01*
X8041491Y-14738579D02*
X8051015Y-14776674D01*
X8051015Y-14776674D02*
X8051015Y-14824293D01*
X8051015Y-14824293D02*
X8041491Y-14862388D01*
X8041491Y-14862388D02*
X8031967Y-14881436D01*
X8031967Y-14881436D02*
X8022444Y-14890960D01*
X8022444Y-14890960D02*
X8003396Y-14900484D01*
X8003396Y-14900484D02*
X7984348Y-14900484D01*
X7984348Y-14900484D02*
X7965301Y-14890960D01*
X7965301Y-14890960D02*
X7955777Y-14881436D01*
X7955777Y-14881436D02*
X7946253Y-14862388D01*
X7946253Y-14862388D02*
X7936729Y-14824293D01*
X7936729Y-14824293D02*
X7936729Y-14776674D01*
X7936729Y-14776674D02*
X7946253Y-14738579D01*
X7946253Y-14738579D02*
X7955777Y-14719531D01*
X7955777Y-14719531D02*
X7965301Y-14710008D01*
X7965301Y-14710008D02*
X7984348Y-14700484D01*
X8117682Y-14700484D02*
X8241491Y-14700484D01*
X8241491Y-14700484D02*
X8174825Y-14776674D01*
X8174825Y-14776674D02*
X8203396Y-14776674D01*
X8203396Y-14776674D02*
X8222444Y-14786198D01*
X8222444Y-14786198D02*
X8231967Y-14795722D01*
X8231967Y-14795722D02*
X8241491Y-14814769D01*
X8241491Y-14814769D02*
X8241491Y-14862388D01*
X8241491Y-14862388D02*
X8231967Y-14881436D01*
X8231967Y-14881436D02*
X8222444Y-14890960D01*
X8222444Y-14890960D02*
X8203396Y-14900484D01*
X8203396Y-14900484D02*
X8146253Y-14900484D01*
X8146253Y-14900484D02*
X8127206Y-14890960D01*
X8127206Y-14890960D02*
X8117682Y-14881436D01*
X8365301Y-14700484D02*
X8384348Y-14700484D01*
X8384348Y-14700484D02*
X8403396Y-14710008D01*
X8403396Y-14710008D02*
X8412920Y-14719531D01*
X8412920Y-14719531D02*
X8422444Y-14738579D01*
X8422444Y-14738579D02*
X8431968Y-14776674D01*
X8431968Y-14776674D02*
X8431968Y-14824293D01*
X8431968Y-14824293D02*
X8422444Y-14862388D01*
X8422444Y-14862388D02*
X8412920Y-14881436D01*
X8412920Y-14881436D02*
X8403396Y-14890960D01*
X8403396Y-14890960D02*
X8384348Y-14900484D01*
X8384348Y-14900484D02*
X8365301Y-14900484D01*
X8365301Y-14900484D02*
X8346253Y-14890960D01*
X8346253Y-14890960D02*
X8336729Y-14881436D01*
X8336729Y-14881436D02*
X8327206Y-14862388D01*
X8327206Y-14862388D02*
X8317682Y-14824293D01*
X8317682Y-14824293D02*
X8317682Y-14776674D01*
X8317682Y-14776674D02*
X8327206Y-14738579D01*
X8327206Y-14738579D02*
X8336729Y-14719531D01*
X8336729Y-14719531D02*
X8346253Y-14710008D01*
X8346253Y-14710008D02*
X8365301Y-14700484D01*
X8555777Y-14700484D02*
X8574825Y-14700484D01*
X8574825Y-14700484D02*
X8593872Y-14710008D01*
X8593872Y-14710008D02*
X8603396Y-14719531D01*
X8603396Y-14719531D02*
X8612920Y-14738579D01*
X8612920Y-14738579D02*
X8622444Y-14776674D01*
X8622444Y-14776674D02*
X8622444Y-14824293D01*
X8622444Y-14824293D02*
X8612920Y-14862388D01*
X8612920Y-14862388D02*
X8603396Y-14881436D01*
X8603396Y-14881436D02*
X8593872Y-14890960D01*
X8593872Y-14890960D02*
X8574825Y-14900484D01*
X8574825Y-14900484D02*
X8555777Y-14900484D01*
X8555777Y-14900484D02*
X8536729Y-14890960D01*
X8536729Y-14890960D02*
X8527206Y-14881436D01*
X8527206Y-14881436D02*
X8517682Y-14862388D01*
X8517682Y-14862388D02*
X8508158Y-14824293D01*
X8508158Y-14824293D02*
X8508158Y-14776674D01*
X8508158Y-14776674D02*
X8517682Y-14738579D01*
X8517682Y-14738579D02*
X8527206Y-14719531D01*
X8527206Y-14719531D02*
X8536729Y-14710008D01*
X8536729Y-14710008D02*
X8555777Y-14700484D01*
X8698634Y-14700484D02*
X8698634Y-14738579D01*
X8774825Y-14700484D02*
X8774825Y-14738579D01*
X9070063Y-14976674D02*
X9060539Y-14967150D01*
X9060539Y-14967150D02*
X9041491Y-14938579D01*
X9041491Y-14938579D02*
X9031968Y-14919531D01*
X9031968Y-14919531D02*
X9022444Y-14890960D01*
X9022444Y-14890960D02*
X9012920Y-14843341D01*
X9012920Y-14843341D02*
X9012920Y-14805246D01*
X9012920Y-14805246D02*
X9022444Y-14757627D01*
X9022444Y-14757627D02*
X9031968Y-14729055D01*
X9031968Y-14729055D02*
X9041491Y-14710008D01*
X9041491Y-14710008D02*
X9060539Y-14681436D01*
X9060539Y-14681436D02*
X9070063Y-14671912D01*
X9241491Y-14700484D02*
X9146253Y-14700484D01*
X9146253Y-14700484D02*
X9136730Y-14795722D01*
X9136730Y-14795722D02*
X9146253Y-14786198D01*
X9146253Y-14786198D02*
X9165301Y-14776674D01*
X9165301Y-14776674D02*
X9212920Y-14776674D01*
X9212920Y-14776674D02*
X9231968Y-14786198D01*
X9231968Y-14786198D02*
X9241491Y-14795722D01*
X9241491Y-14795722D02*
X9251015Y-14814769D01*
X9251015Y-14814769D02*
X9251015Y-14862388D01*
X9251015Y-14862388D02*
X9241491Y-14881436D01*
X9241491Y-14881436D02*
X9231968Y-14890960D01*
X9231968Y-14890960D02*
X9212920Y-14900484D01*
X9212920Y-14900484D02*
X9165301Y-14900484D01*
X9165301Y-14900484D02*
X9146253Y-14890960D01*
X9146253Y-14890960D02*
X9136730Y-14881436D01*
X9346253Y-14900484D02*
X9384349Y-14900484D01*
X9384349Y-14900484D02*
X9403396Y-14890960D01*
X9403396Y-14890960D02*
X9412920Y-14881436D01*
X9412920Y-14881436D02*
X9431968Y-14852865D01*
X9431968Y-14852865D02*
X9441491Y-14814769D01*
X9441491Y-14814769D02*
X9441491Y-14738579D01*
X9441491Y-14738579D02*
X9431968Y-14719531D01*
X9431968Y-14719531D02*
X9422444Y-14710008D01*
X9422444Y-14710008D02*
X9403396Y-14700484D01*
X9403396Y-14700484D02*
X9365301Y-14700484D01*
X9365301Y-14700484D02*
X9346253Y-14710008D01*
X9346253Y-14710008D02*
X9336730Y-14719531D01*
X9336730Y-14719531D02*
X9327206Y-14738579D01*
X9327206Y-14738579D02*
X9327206Y-14786198D01*
X9327206Y-14786198D02*
X9336730Y-14805246D01*
X9336730Y-14805246D02*
X9346253Y-14814769D01*
X9346253Y-14814769D02*
X9365301Y-14824293D01*
X9365301Y-14824293D02*
X9403396Y-14824293D01*
X9403396Y-14824293D02*
X9422444Y-14814769D01*
X9422444Y-14814769D02*
X9431968Y-14805246D01*
X9431968Y-14805246D02*
X9441491Y-14786198D01*
X9679587Y-14900484D02*
X9679587Y-14700484D01*
X9765301Y-14900484D02*
X9765301Y-14795722D01*
X9765301Y-14795722D02*
X9755777Y-14776674D01*
X9755777Y-14776674D02*
X9736730Y-14767150D01*
X9736730Y-14767150D02*
X9708158Y-14767150D01*
X9708158Y-14767150D02*
X9689111Y-14776674D01*
X9689111Y-14776674D02*
X9679587Y-14786198D01*
X9889111Y-14900484D02*
X9870063Y-14890960D01*
X9870063Y-14890960D02*
X9860539Y-14881436D01*
X9860539Y-14881436D02*
X9851015Y-14862388D01*
X9851015Y-14862388D02*
X9851015Y-14805246D01*
X9851015Y-14805246D02*
X9860539Y-14786198D01*
X9860539Y-14786198D02*
X9870063Y-14776674D01*
X9870063Y-14776674D02*
X9889111Y-14767150D01*
X9889111Y-14767150D02*
X9917682Y-14767150D01*
X9917682Y-14767150D02*
X9936730Y-14776674D01*
X9936730Y-14776674D02*
X9946253Y-14786198D01*
X9946253Y-14786198D02*
X9955777Y-14805246D01*
X9955777Y-14805246D02*
X9955777Y-14862388D01*
X9955777Y-14862388D02*
X9946253Y-14881436D01*
X9946253Y-14881436D02*
X9936730Y-14890960D01*
X9936730Y-14890960D02*
X9917682Y-14900484D01*
X9917682Y-14900484D02*
X9889111Y-14900484D01*
X10070063Y-14900484D02*
X10051015Y-14890960D01*
X10051015Y-14890960D02*
X10041492Y-14871912D01*
X10041492Y-14871912D02*
X10041492Y-14700484D01*
X10222444Y-14890960D02*
X10203396Y-14900484D01*
X10203396Y-14900484D02*
X10165301Y-14900484D01*
X10165301Y-14900484D02*
X10146253Y-14890960D01*
X10146253Y-14890960D02*
X10136730Y-14871912D01*
X10136730Y-14871912D02*
X10136730Y-14795722D01*
X10136730Y-14795722D02*
X10146253Y-14776674D01*
X10146253Y-14776674D02*
X10165301Y-14767150D01*
X10165301Y-14767150D02*
X10203396Y-14767150D01*
X10203396Y-14767150D02*
X10222444Y-14776674D01*
X10222444Y-14776674D02*
X10231968Y-14795722D01*
X10231968Y-14795722D02*
X10231968Y-14814769D01*
X10231968Y-14814769D02*
X10136730Y-14833817D01*
X10308158Y-14890960D02*
X10327206Y-14900484D01*
X10327206Y-14900484D02*
X10365301Y-14900484D01*
X10365301Y-14900484D02*
X10384349Y-14890960D01*
X10384349Y-14890960D02*
X10393873Y-14871912D01*
X10393873Y-14871912D02*
X10393873Y-14862388D01*
X10393873Y-14862388D02*
X10384349Y-14843341D01*
X10384349Y-14843341D02*
X10365301Y-14833817D01*
X10365301Y-14833817D02*
X10336730Y-14833817D01*
X10336730Y-14833817D02*
X10317682Y-14824293D01*
X10317682Y-14824293D02*
X10308158Y-14805246D01*
X10308158Y-14805246D02*
X10308158Y-14795722D01*
X10308158Y-14795722D02*
X10317682Y-14776674D01*
X10317682Y-14776674D02*
X10336730Y-14767150D01*
X10336730Y-14767150D02*
X10365301Y-14767150D01*
X10365301Y-14767150D02*
X10384349Y-14776674D01*
X10460539Y-14976674D02*
X10470063Y-14967150D01*
X10470063Y-14967150D02*
X10489111Y-14938579D01*
X10489111Y-14938579D02*
X10498634Y-14919531D01*
X10498634Y-14919531D02*
X10508158Y-14890960D01*
X10508158Y-14890960D02*
X10517682Y-14843341D01*
X10517682Y-14843341D02*
X10517682Y-14805246D01*
X10517682Y-14805246D02*
X10508158Y-14757627D01*
X10508158Y-14757627D02*
X10498634Y-14729055D01*
X10498634Y-14729055D02*
X10489111Y-14710008D01*
X10489111Y-14710008D02*
X10470063Y-14681436D01*
X10470063Y-14681436D02*
X10460539Y-14671912D01*
D10*
X5455000Y-15033000D02*
X5455000Y-15113000D01*
X5415000Y-15073000D02*
X5495000Y-15073000D01*
D11*
X5793872Y-14964484D02*
X5812920Y-14964484D01*
X5812920Y-14964484D02*
X5831967Y-14974008D01*
X5831967Y-14974008D02*
X5841491Y-14983531D01*
X5841491Y-14983531D02*
X5851015Y-15002579D01*
X5851015Y-15002579D02*
X5860539Y-15040674D01*
X5860539Y-15040674D02*
X5860539Y-15088293D01*
X5860539Y-15088293D02*
X5851015Y-15126388D01*
X5851015Y-15126388D02*
X5841491Y-15145436D01*
X5841491Y-15145436D02*
X5831967Y-15154960D01*
X5831967Y-15154960D02*
X5812920Y-15164484D01*
X5812920Y-15164484D02*
X5793872Y-15164484D01*
X5793872Y-15164484D02*
X5774824Y-15154960D01*
X5774824Y-15154960D02*
X5765301Y-15145436D01*
X5765301Y-15145436D02*
X5755777Y-15126388D01*
X5755777Y-15126388D02*
X5746253Y-15088293D01*
X5746253Y-15088293D02*
X5746253Y-15040674D01*
X5746253Y-15040674D02*
X5755777Y-15002579D01*
X5755777Y-15002579D02*
X5765301Y-14983531D01*
X5765301Y-14983531D02*
X5774824Y-14974008D01*
X5774824Y-14974008D02*
X5793872Y-14964484D01*
X5946253Y-15145436D02*
X5955777Y-15154960D01*
X5955777Y-15154960D02*
X5946253Y-15164484D01*
X5946253Y-15164484D02*
X5936729Y-15154960D01*
X5936729Y-15154960D02*
X5946253Y-15145436D01*
X5946253Y-15145436D02*
X5946253Y-15164484D01*
X6070062Y-15050198D02*
X6051015Y-15040674D01*
X6051015Y-15040674D02*
X6041491Y-15031150D01*
X6041491Y-15031150D02*
X6031967Y-15012103D01*
X6031967Y-15012103D02*
X6031967Y-15002579D01*
X6031967Y-15002579D02*
X6041491Y-14983531D01*
X6041491Y-14983531D02*
X6051015Y-14974008D01*
X6051015Y-14974008D02*
X6070062Y-14964484D01*
X6070062Y-14964484D02*
X6108158Y-14964484D01*
X6108158Y-14964484D02*
X6127205Y-14974008D01*
X6127205Y-14974008D02*
X6136729Y-14983531D01*
X6136729Y-14983531D02*
X6146253Y-15002579D01*
X6146253Y-15002579D02*
X6146253Y-15012103D01*
X6146253Y-15012103D02*
X6136729Y-15031150D01*
X6136729Y-15031150D02*
X6127205Y-15040674D01*
X6127205Y-15040674D02*
X6108158Y-15050198D01*
X6108158Y-15050198D02*
X6070062Y-15050198D01*
X6070062Y-15050198D02*
X6051015Y-15059722D01*
X6051015Y-15059722D02*
X6041491Y-15069246D01*
X6041491Y-15069246D02*
X6031967Y-15088293D01*
X6031967Y-15088293D02*
X6031967Y-15126388D01*
X6031967Y-15126388D02*
X6041491Y-15145436D01*
X6041491Y-15145436D02*
X6051015Y-15154960D01*
X6051015Y-15154960D02*
X6070062Y-15164484D01*
X6070062Y-15164484D02*
X6108158Y-15164484D01*
X6108158Y-15164484D02*
X6127205Y-15154960D01*
X6127205Y-15154960D02*
X6136729Y-15145436D01*
X6136729Y-15145436D02*
X6146253Y-15126388D01*
X6146253Y-15126388D02*
X6146253Y-15088293D01*
X6146253Y-15088293D02*
X6136729Y-15069246D01*
X6136729Y-15069246D02*
X6127205Y-15059722D01*
X6127205Y-15059722D02*
X6108158Y-15050198D01*
X6270062Y-14964484D02*
X6289110Y-14964484D01*
X6289110Y-14964484D02*
X6308158Y-14974008D01*
X6308158Y-14974008D02*
X6317682Y-14983531D01*
X6317682Y-14983531D02*
X6327205Y-15002579D01*
X6327205Y-15002579D02*
X6336729Y-15040674D01*
X6336729Y-15040674D02*
X6336729Y-15088293D01*
X6336729Y-15088293D02*
X6327205Y-15126388D01*
X6327205Y-15126388D02*
X6317682Y-15145436D01*
X6317682Y-15145436D02*
X6308158Y-15154960D01*
X6308158Y-15154960D02*
X6289110Y-15164484D01*
X6289110Y-15164484D02*
X6270062Y-15164484D01*
X6270062Y-15164484D02*
X6251015Y-15154960D01*
X6251015Y-15154960D02*
X6241491Y-15145436D01*
X6241491Y-15145436D02*
X6231967Y-15126388D01*
X6231967Y-15126388D02*
X6222443Y-15088293D01*
X6222443Y-15088293D02*
X6222443Y-15040674D01*
X6222443Y-15040674D02*
X6231967Y-15002579D01*
X6231967Y-15002579D02*
X6241491Y-14983531D01*
X6241491Y-14983531D02*
X6251015Y-14974008D01*
X6251015Y-14974008D02*
X6270062Y-14964484D01*
X6460539Y-14964484D02*
X6479586Y-14964484D01*
X6479586Y-14964484D02*
X6498634Y-14974008D01*
X6498634Y-14974008D02*
X6508158Y-14983531D01*
X6508158Y-14983531D02*
X6517682Y-15002579D01*
X6517682Y-15002579D02*
X6527205Y-15040674D01*
X6527205Y-15040674D02*
X6527205Y-15088293D01*
X6527205Y-15088293D02*
X6517682Y-15126388D01*
X6517682Y-15126388D02*
X6508158Y-15145436D01*
X6508158Y-15145436D02*
X6498634Y-15154960D01*
X6498634Y-15154960D02*
X6479586Y-15164484D01*
X6479586Y-15164484D02*
X6460539Y-15164484D01*
X6460539Y-15164484D02*
X6441491Y-15154960D01*
X6441491Y-15154960D02*
X6431967Y-15145436D01*
X6431967Y-15145436D02*
X6422443Y-15126388D01*
X6422443Y-15126388D02*
X6412920Y-15088293D01*
X6412920Y-15088293D02*
X6412920Y-15040674D01*
X6412920Y-15040674D02*
X6422443Y-15002579D01*
X6422443Y-15002579D02*
X6431967Y-14983531D01*
X6431967Y-14983531D02*
X6441491Y-14974008D01*
X6441491Y-14974008D02*
X6460539Y-14964484D01*
X6612920Y-15164484D02*
X6612920Y-15031150D01*
X6612920Y-15050198D02*
X6622443Y-15040674D01*
X6622443Y-15040674D02*
X6641491Y-15031150D01*
X6641491Y-15031150D02*
X6670063Y-15031150D01*
X6670063Y-15031150D02*
X6689110Y-15040674D01*
X6689110Y-15040674D02*
X6698634Y-15059722D01*
X6698634Y-15059722D02*
X6698634Y-15164484D01*
X6698634Y-15059722D02*
X6708158Y-15040674D01*
X6708158Y-15040674D02*
X6727205Y-15031150D01*
X6727205Y-15031150D02*
X6755777Y-15031150D01*
X6755777Y-15031150D02*
X6774824Y-15040674D01*
X6774824Y-15040674D02*
X6784348Y-15059722D01*
X6784348Y-15059722D02*
X6784348Y-15164484D01*
X6879586Y-15164484D02*
X6879586Y-15031150D01*
X6879586Y-15050198D02*
X6889110Y-15040674D01*
X6889110Y-15040674D02*
X6908158Y-15031150D01*
X6908158Y-15031150D02*
X6936729Y-15031150D01*
X6936729Y-15031150D02*
X6955777Y-15040674D01*
X6955777Y-15040674D02*
X6965301Y-15059722D01*
X6965301Y-15059722D02*
X6965301Y-15164484D01*
X6965301Y-15059722D02*
X6974824Y-15040674D01*
X6974824Y-15040674D02*
X6993872Y-15031150D01*
X6993872Y-15031150D02*
X7022443Y-15031150D01*
X7022443Y-15031150D02*
X7041491Y-15040674D01*
X7041491Y-15040674D02*
X7051015Y-15059722D01*
X7051015Y-15059722D02*
X7051015Y-15164484D01*
X7441491Y-14954960D02*
X7270063Y-15212103D01*
X7698634Y-14964484D02*
X7717682Y-14964484D01*
X7717682Y-14964484D02*
X7736729Y-14974008D01*
X7736729Y-14974008D02*
X7746253Y-14983531D01*
X7746253Y-14983531D02*
X7755777Y-15002579D01*
X7755777Y-15002579D02*
X7765301Y-15040674D01*
X7765301Y-15040674D02*
X7765301Y-15088293D01*
X7765301Y-15088293D02*
X7755777Y-15126388D01*
X7755777Y-15126388D02*
X7746253Y-15145436D01*
X7746253Y-15145436D02*
X7736729Y-15154960D01*
X7736729Y-15154960D02*
X7717682Y-15164484D01*
X7717682Y-15164484D02*
X7698634Y-15164484D01*
X7698634Y-15164484D02*
X7679586Y-15154960D01*
X7679586Y-15154960D02*
X7670063Y-15145436D01*
X7670063Y-15145436D02*
X7660539Y-15126388D01*
X7660539Y-15126388D02*
X7651015Y-15088293D01*
X7651015Y-15088293D02*
X7651015Y-15040674D01*
X7651015Y-15040674D02*
X7660539Y-15002579D01*
X7660539Y-15002579D02*
X7670063Y-14983531D01*
X7670063Y-14983531D02*
X7679586Y-14974008D01*
X7679586Y-14974008D02*
X7698634Y-14964484D01*
X7851015Y-15145436D02*
X7860539Y-15154960D01*
X7860539Y-15154960D02*
X7851015Y-15164484D01*
X7851015Y-15164484D02*
X7841491Y-15154960D01*
X7841491Y-15154960D02*
X7851015Y-15145436D01*
X7851015Y-15145436D02*
X7851015Y-15164484D01*
X7984348Y-14964484D02*
X8003396Y-14964484D01*
X8003396Y-14964484D02*
X8022444Y-14974008D01*
X8022444Y-14974008D02*
X8031967Y-14983531D01*
X8031967Y-14983531D02*
X8041491Y-15002579D01*
X8041491Y-15002579D02*
X8051015Y-15040674D01*
X8051015Y-15040674D02*
X8051015Y-15088293D01*
X8051015Y-15088293D02*
X8041491Y-15126388D01*
X8041491Y-15126388D02*
X8031967Y-15145436D01*
X8031967Y-15145436D02*
X8022444Y-15154960D01*
X8022444Y-15154960D02*
X8003396Y-15164484D01*
X8003396Y-15164484D02*
X7984348Y-15164484D01*
X7984348Y-15164484D02*
X7965301Y-15154960D01*
X7965301Y-15154960D02*
X7955777Y-15145436D01*
X7955777Y-15145436D02*
X7946253Y-15126388D01*
X7946253Y-15126388D02*
X7936729Y-15088293D01*
X7936729Y-15088293D02*
X7936729Y-15040674D01*
X7936729Y-15040674D02*
X7946253Y-15002579D01*
X7946253Y-15002579D02*
X7955777Y-14983531D01*
X7955777Y-14983531D02*
X7965301Y-14974008D01*
X7965301Y-14974008D02*
X7984348Y-14964484D01*
X8117682Y-14964484D02*
X8241491Y-14964484D01*
X8241491Y-14964484D02*
X8174825Y-15040674D01*
X8174825Y-15040674D02*
X8203396Y-15040674D01*
X8203396Y-15040674D02*
X8222444Y-15050198D01*
X8222444Y-15050198D02*
X8231967Y-15059722D01*
X8231967Y-15059722D02*
X8241491Y-15078769D01*
X8241491Y-15078769D02*
X8241491Y-15126388D01*
X8241491Y-15126388D02*
X8231967Y-15145436D01*
X8231967Y-15145436D02*
X8222444Y-15154960D01*
X8222444Y-15154960D02*
X8203396Y-15164484D01*
X8203396Y-15164484D02*
X8146253Y-15164484D01*
X8146253Y-15164484D02*
X8127206Y-15154960D01*
X8127206Y-15154960D02*
X8117682Y-15145436D01*
X8431968Y-15164484D02*
X8317682Y-15164484D01*
X8374825Y-15164484D02*
X8374825Y-14964484D01*
X8374825Y-14964484D02*
X8355777Y-14993055D01*
X8355777Y-14993055D02*
X8336729Y-15012103D01*
X8336729Y-15012103D02*
X8317682Y-15021627D01*
X8612920Y-14964484D02*
X8517682Y-14964484D01*
X8517682Y-14964484D02*
X8508158Y-15059722D01*
X8508158Y-15059722D02*
X8517682Y-15050198D01*
X8517682Y-15050198D02*
X8536729Y-15040674D01*
X8536729Y-15040674D02*
X8584349Y-15040674D01*
X8584349Y-15040674D02*
X8603396Y-15050198D01*
X8603396Y-15050198D02*
X8612920Y-15059722D01*
X8612920Y-15059722D02*
X8622444Y-15078769D01*
X8622444Y-15078769D02*
X8622444Y-15126388D01*
X8622444Y-15126388D02*
X8612920Y-15145436D01*
X8612920Y-15145436D02*
X8603396Y-15154960D01*
X8603396Y-15154960D02*
X8584349Y-15164484D01*
X8584349Y-15164484D02*
X8536729Y-15164484D01*
X8536729Y-15164484D02*
X8517682Y-15154960D01*
X8517682Y-15154960D02*
X8508158Y-15145436D01*
X8698634Y-14964484D02*
X8698634Y-15002579D01*
X8774825Y-14964484D02*
X8774825Y-15002579D01*
X9070063Y-15240674D02*
X9060539Y-15231150D01*
X9060539Y-15231150D02*
X9041491Y-15202579D01*
X9041491Y-15202579D02*
X9031968Y-15183531D01*
X9031968Y-15183531D02*
X9022444Y-15154960D01*
X9022444Y-15154960D02*
X9012920Y-15107341D01*
X9012920Y-15107341D02*
X9012920Y-15069246D01*
X9012920Y-15069246D02*
X9022444Y-15021627D01*
X9022444Y-15021627D02*
X9031968Y-14993055D01*
X9031968Y-14993055D02*
X9041491Y-14974008D01*
X9041491Y-14974008D02*
X9060539Y-14945436D01*
X9060539Y-14945436D02*
X9070063Y-14935912D01*
X9136730Y-14983531D02*
X9146253Y-14974008D01*
X9146253Y-14974008D02*
X9165301Y-14964484D01*
X9165301Y-14964484D02*
X9212920Y-14964484D01*
X9212920Y-14964484D02*
X9231968Y-14974008D01*
X9231968Y-14974008D02*
X9241491Y-14983531D01*
X9241491Y-14983531D02*
X9251015Y-15002579D01*
X9251015Y-15002579D02*
X9251015Y-15021627D01*
X9251015Y-15021627D02*
X9241491Y-15050198D01*
X9241491Y-15050198D02*
X9127206Y-15164484D01*
X9127206Y-15164484D02*
X9251015Y-15164484D01*
X9422444Y-14964484D02*
X9384349Y-14964484D01*
X9384349Y-14964484D02*
X9365301Y-14974008D01*
X9365301Y-14974008D02*
X9355777Y-14983531D01*
X9355777Y-14983531D02*
X9336730Y-15012103D01*
X9336730Y-15012103D02*
X9327206Y-15050198D01*
X9327206Y-15050198D02*
X9327206Y-15126388D01*
X9327206Y-15126388D02*
X9336730Y-15145436D01*
X9336730Y-15145436D02*
X9346253Y-15154960D01*
X9346253Y-15154960D02*
X9365301Y-15164484D01*
X9365301Y-15164484D02*
X9403396Y-15164484D01*
X9403396Y-15164484D02*
X9422444Y-15154960D01*
X9422444Y-15154960D02*
X9431968Y-15145436D01*
X9431968Y-15145436D02*
X9441491Y-15126388D01*
X9441491Y-15126388D02*
X9441491Y-15078769D01*
X9441491Y-15078769D02*
X9431968Y-15059722D01*
X9431968Y-15059722D02*
X9422444Y-15050198D01*
X9422444Y-15050198D02*
X9403396Y-15040674D01*
X9403396Y-15040674D02*
X9365301Y-15040674D01*
X9365301Y-15040674D02*
X9346253Y-15050198D01*
X9346253Y-15050198D02*
X9336730Y-15059722D01*
X9336730Y-15059722D02*
X9327206Y-15078769D01*
X9679587Y-15164484D02*
X9679587Y-14964484D01*
X9765301Y-15164484D02*
X9765301Y-15059722D01*
X9765301Y-15059722D02*
X9755777Y-15040674D01*
X9755777Y-15040674D02*
X9736730Y-15031150D01*
X9736730Y-15031150D02*
X9708158Y-15031150D01*
X9708158Y-15031150D02*
X9689111Y-15040674D01*
X9689111Y-15040674D02*
X9679587Y-15050198D01*
X9889111Y-15164484D02*
X9870063Y-15154960D01*
X9870063Y-15154960D02*
X9860539Y-15145436D01*
X9860539Y-15145436D02*
X9851015Y-15126388D01*
X9851015Y-15126388D02*
X9851015Y-15069246D01*
X9851015Y-15069246D02*
X9860539Y-15050198D01*
X9860539Y-15050198D02*
X9870063Y-15040674D01*
X9870063Y-15040674D02*
X9889111Y-15031150D01*
X9889111Y-15031150D02*
X9917682Y-15031150D01*
X9917682Y-15031150D02*
X9936730Y-15040674D01*
X9936730Y-15040674D02*
X9946253Y-15050198D01*
X9946253Y-15050198D02*
X9955777Y-15069246D01*
X9955777Y-15069246D02*
X9955777Y-15126388D01*
X9955777Y-15126388D02*
X9946253Y-15145436D01*
X9946253Y-15145436D02*
X9936730Y-15154960D01*
X9936730Y-15154960D02*
X9917682Y-15164484D01*
X9917682Y-15164484D02*
X9889111Y-15164484D01*
X10070063Y-15164484D02*
X10051015Y-15154960D01*
X10051015Y-15154960D02*
X10041492Y-15135912D01*
X10041492Y-15135912D02*
X10041492Y-14964484D01*
X10222444Y-15154960D02*
X10203396Y-15164484D01*
X10203396Y-15164484D02*
X10165301Y-15164484D01*
X10165301Y-15164484D02*
X10146253Y-15154960D01*
X10146253Y-15154960D02*
X10136730Y-15135912D01*
X10136730Y-15135912D02*
X10136730Y-15059722D01*
X10136730Y-15059722D02*
X10146253Y-15040674D01*
X10146253Y-15040674D02*
X10165301Y-15031150D01*
X10165301Y-15031150D02*
X10203396Y-15031150D01*
X10203396Y-15031150D02*
X10222444Y-15040674D01*
X10222444Y-15040674D02*
X10231968Y-15059722D01*
X10231968Y-15059722D02*
X10231968Y-15078769D01*
X10231968Y-15078769D02*
X10136730Y-15097817D01*
X10308158Y-15154960D02*
X10327206Y-15164484D01*
X10327206Y-15164484D02*
X10365301Y-15164484D01*
X10365301Y-15164484D02*
X10384349Y-15154960D01*
X10384349Y-15154960D02*
X10393873Y-15135912D01*
X10393873Y-15135912D02*
X10393873Y-15126388D01*
X10393873Y-15126388D02*
X10384349Y-15107341D01*
X10384349Y-15107341D02*
X10365301Y-15097817D01*
X10365301Y-15097817D02*
X10336730Y-15097817D01*
X10336730Y-15097817D02*
X10317682Y-15088293D01*
X10317682Y-15088293D02*
X10308158Y-15069246D01*
X10308158Y-15069246D02*
X10308158Y-15059722D01*
X10308158Y-15059722D02*
X10317682Y-15040674D01*
X10317682Y-15040674D02*
X10336730Y-15031150D01*
X10336730Y-15031150D02*
X10365301Y-15031150D01*
X10365301Y-15031150D02*
X10384349Y-15040674D01*
X10460539Y-15240674D02*
X10470063Y-15231150D01*
X10470063Y-15231150D02*
X10489111Y-15202579D01*
X10489111Y-15202579D02*
X10498634Y-15183531D01*
X10498634Y-15183531D02*
X10508158Y-15154960D01*
X10508158Y-15154960D02*
X10517682Y-15107341D01*
X10517682Y-15107341D02*
X10517682Y-15069246D01*
X10517682Y-15069246D02*
X10508158Y-15021627D01*
X10508158Y-15021627D02*
X10498634Y-14993055D01*
X10498634Y-14993055D02*
X10489111Y-14974008D01*
X10489111Y-14974008D02*
X10470063Y-14945436D01*
X10470063Y-14945436D02*
X10460539Y-14935912D01*
D10*
X5480356Y-15372356D02*
X5480356Y-15301644D01*
X5409644Y-15301644D01*
X5409644Y-15372356D01*
X5480356Y-15372356D01*
D11*
X5860539Y-15428484D02*
X5746253Y-15428484D01*
X5803396Y-15428484D02*
X5803396Y-15228484D01*
X5803396Y-15228484D02*
X5784348Y-15257055D01*
X5784348Y-15257055D02*
X5765301Y-15276103D01*
X5765301Y-15276103D02*
X5746253Y-15285627D01*
X5946253Y-15409436D02*
X5955777Y-15418960D01*
X5955777Y-15418960D02*
X5946253Y-15428484D01*
X5946253Y-15428484D02*
X5936729Y-15418960D01*
X5936729Y-15418960D02*
X5946253Y-15409436D01*
X5946253Y-15409436D02*
X5946253Y-15428484D01*
X6079586Y-15228484D02*
X6098634Y-15228484D01*
X6098634Y-15228484D02*
X6117682Y-15238008D01*
X6117682Y-15238008D02*
X6127205Y-15247531D01*
X6127205Y-15247531D02*
X6136729Y-15266579D01*
X6136729Y-15266579D02*
X6146253Y-15304674D01*
X6146253Y-15304674D02*
X6146253Y-15352293D01*
X6146253Y-15352293D02*
X6136729Y-15390388D01*
X6136729Y-15390388D02*
X6127205Y-15409436D01*
X6127205Y-15409436D02*
X6117682Y-15418960D01*
X6117682Y-15418960D02*
X6098634Y-15428484D01*
X6098634Y-15428484D02*
X6079586Y-15428484D01*
X6079586Y-15428484D02*
X6060539Y-15418960D01*
X6060539Y-15418960D02*
X6051015Y-15409436D01*
X6051015Y-15409436D02*
X6041491Y-15390388D01*
X6041491Y-15390388D02*
X6031967Y-15352293D01*
X6031967Y-15352293D02*
X6031967Y-15304674D01*
X6031967Y-15304674D02*
X6041491Y-15266579D01*
X6041491Y-15266579D02*
X6051015Y-15247531D01*
X6051015Y-15247531D02*
X6060539Y-15238008D01*
X6060539Y-15238008D02*
X6079586Y-15228484D01*
X6270062Y-15228484D02*
X6289110Y-15228484D01*
X6289110Y-15228484D02*
X6308158Y-15238008D01*
X6308158Y-15238008D02*
X6317682Y-15247531D01*
X6317682Y-15247531D02*
X6327205Y-15266579D01*
X6327205Y-15266579D02*
X6336729Y-15304674D01*
X6336729Y-15304674D02*
X6336729Y-15352293D01*
X6336729Y-15352293D02*
X6327205Y-15390388D01*
X6327205Y-15390388D02*
X6317682Y-15409436D01*
X6317682Y-15409436D02*
X6308158Y-15418960D01*
X6308158Y-15418960D02*
X6289110Y-15428484D01*
X6289110Y-15428484D02*
X6270062Y-15428484D01*
X6270062Y-15428484D02*
X6251015Y-15418960D01*
X6251015Y-15418960D02*
X6241491Y-15409436D01*
X6241491Y-15409436D02*
X6231967Y-15390388D01*
X6231967Y-15390388D02*
X6222443Y-15352293D01*
X6222443Y-15352293D02*
X6222443Y-15304674D01*
X6222443Y-15304674D02*
X6231967Y-15266579D01*
X6231967Y-15266579D02*
X6241491Y-15247531D01*
X6241491Y-15247531D02*
X6251015Y-15238008D01*
X6251015Y-15238008D02*
X6270062Y-15228484D01*
X6460539Y-15228484D02*
X6479586Y-15228484D01*
X6479586Y-15228484D02*
X6498634Y-15238008D01*
X6498634Y-15238008D02*
X6508158Y-15247531D01*
X6508158Y-15247531D02*
X6517682Y-15266579D01*
X6517682Y-15266579D02*
X6527205Y-15304674D01*
X6527205Y-15304674D02*
X6527205Y-15352293D01*
X6527205Y-15352293D02*
X6517682Y-15390388D01*
X6517682Y-15390388D02*
X6508158Y-15409436D01*
X6508158Y-15409436D02*
X6498634Y-15418960D01*
X6498634Y-15418960D02*
X6479586Y-15428484D01*
X6479586Y-15428484D02*
X6460539Y-15428484D01*
X6460539Y-15428484D02*
X6441491Y-15418960D01*
X6441491Y-15418960D02*
X6431967Y-15409436D01*
X6431967Y-15409436D02*
X6422443Y-15390388D01*
X6422443Y-15390388D02*
X6412920Y-15352293D01*
X6412920Y-15352293D02*
X6412920Y-15304674D01*
X6412920Y-15304674D02*
X6422443Y-15266579D01*
X6422443Y-15266579D02*
X6431967Y-15247531D01*
X6431967Y-15247531D02*
X6441491Y-15238008D01*
X6441491Y-15238008D02*
X6460539Y-15228484D01*
X6612920Y-15428484D02*
X6612920Y-15295150D01*
X6612920Y-15314198D02*
X6622443Y-15304674D01*
X6622443Y-15304674D02*
X6641491Y-15295150D01*
X6641491Y-15295150D02*
X6670063Y-15295150D01*
X6670063Y-15295150D02*
X6689110Y-15304674D01*
X6689110Y-15304674D02*
X6698634Y-15323722D01*
X6698634Y-15323722D02*
X6698634Y-15428484D01*
X6698634Y-15323722D02*
X6708158Y-15304674D01*
X6708158Y-15304674D02*
X6727205Y-15295150D01*
X6727205Y-15295150D02*
X6755777Y-15295150D01*
X6755777Y-15295150D02*
X6774824Y-15304674D01*
X6774824Y-15304674D02*
X6784348Y-15323722D01*
X6784348Y-15323722D02*
X6784348Y-15428484D01*
X6879586Y-15428484D02*
X6879586Y-15295150D01*
X6879586Y-15314198D02*
X6889110Y-15304674D01*
X6889110Y-15304674D02*
X6908158Y-15295150D01*
X6908158Y-15295150D02*
X6936729Y-15295150D01*
X6936729Y-15295150D02*
X6955777Y-15304674D01*
X6955777Y-15304674D02*
X6965301Y-15323722D01*
X6965301Y-15323722D02*
X6965301Y-15428484D01*
X6965301Y-15323722D02*
X6974824Y-15304674D01*
X6974824Y-15304674D02*
X6993872Y-15295150D01*
X6993872Y-15295150D02*
X7022443Y-15295150D01*
X7022443Y-15295150D02*
X7041491Y-15304674D01*
X7041491Y-15304674D02*
X7051015Y-15323722D01*
X7051015Y-15323722D02*
X7051015Y-15428484D01*
X7441491Y-15218960D02*
X7270063Y-15476103D01*
X7698634Y-15228484D02*
X7717682Y-15228484D01*
X7717682Y-15228484D02*
X7736729Y-15238008D01*
X7736729Y-15238008D02*
X7746253Y-15247531D01*
X7746253Y-15247531D02*
X7755777Y-15266579D01*
X7755777Y-15266579D02*
X7765301Y-15304674D01*
X7765301Y-15304674D02*
X7765301Y-15352293D01*
X7765301Y-15352293D02*
X7755777Y-15390388D01*
X7755777Y-15390388D02*
X7746253Y-15409436D01*
X7746253Y-15409436D02*
X7736729Y-15418960D01*
X7736729Y-15418960D02*
X7717682Y-15428484D01*
X7717682Y-15428484D02*
X7698634Y-15428484D01*
X7698634Y-15428484D02*
X7679586Y-15418960D01*
X7679586Y-15418960D02*
X7670063Y-15409436D01*
X7670063Y-15409436D02*
X7660539Y-15390388D01*
X7660539Y-15390388D02*
X7651015Y-15352293D01*
X7651015Y-15352293D02*
X7651015Y-15304674D01*
X7651015Y-15304674D02*
X7660539Y-15266579D01*
X7660539Y-15266579D02*
X7670063Y-15247531D01*
X7670063Y-15247531D02*
X7679586Y-15238008D01*
X7679586Y-15238008D02*
X7698634Y-15228484D01*
X7851015Y-15409436D02*
X7860539Y-15418960D01*
X7860539Y-15418960D02*
X7851015Y-15428484D01*
X7851015Y-15428484D02*
X7841491Y-15418960D01*
X7841491Y-15418960D02*
X7851015Y-15409436D01*
X7851015Y-15409436D02*
X7851015Y-15428484D01*
X7984348Y-15228484D02*
X8003396Y-15228484D01*
X8003396Y-15228484D02*
X8022444Y-15238008D01*
X8022444Y-15238008D02*
X8031967Y-15247531D01*
X8031967Y-15247531D02*
X8041491Y-15266579D01*
X8041491Y-15266579D02*
X8051015Y-15304674D01*
X8051015Y-15304674D02*
X8051015Y-15352293D01*
X8051015Y-15352293D02*
X8041491Y-15390388D01*
X8041491Y-15390388D02*
X8031967Y-15409436D01*
X8031967Y-15409436D02*
X8022444Y-15418960D01*
X8022444Y-15418960D02*
X8003396Y-15428484D01*
X8003396Y-15428484D02*
X7984348Y-15428484D01*
X7984348Y-15428484D02*
X7965301Y-15418960D01*
X7965301Y-15418960D02*
X7955777Y-15409436D01*
X7955777Y-15409436D02*
X7946253Y-15390388D01*
X7946253Y-15390388D02*
X7936729Y-15352293D01*
X7936729Y-15352293D02*
X7936729Y-15304674D01*
X7936729Y-15304674D02*
X7946253Y-15266579D01*
X7946253Y-15266579D02*
X7955777Y-15247531D01*
X7955777Y-15247531D02*
X7965301Y-15238008D01*
X7965301Y-15238008D02*
X7984348Y-15228484D01*
X8117682Y-15228484D02*
X8241491Y-15228484D01*
X8241491Y-15228484D02*
X8174825Y-15304674D01*
X8174825Y-15304674D02*
X8203396Y-15304674D01*
X8203396Y-15304674D02*
X8222444Y-15314198D01*
X8222444Y-15314198D02*
X8231967Y-15323722D01*
X8231967Y-15323722D02*
X8241491Y-15342769D01*
X8241491Y-15342769D02*
X8241491Y-15390388D01*
X8241491Y-15390388D02*
X8231967Y-15409436D01*
X8231967Y-15409436D02*
X8222444Y-15418960D01*
X8222444Y-15418960D02*
X8203396Y-15428484D01*
X8203396Y-15428484D02*
X8146253Y-15428484D01*
X8146253Y-15428484D02*
X8127206Y-15418960D01*
X8127206Y-15418960D02*
X8117682Y-15409436D01*
X8336729Y-15428484D02*
X8374825Y-15428484D01*
X8374825Y-15428484D02*
X8393872Y-15418960D01*
X8393872Y-15418960D02*
X8403396Y-15409436D01*
X8403396Y-15409436D02*
X8422444Y-15380865D01*
X8422444Y-15380865D02*
X8431968Y-15342769D01*
X8431968Y-15342769D02*
X8431968Y-15266579D01*
X8431968Y-15266579D02*
X8422444Y-15247531D01*
X8422444Y-15247531D02*
X8412920Y-15238008D01*
X8412920Y-15238008D02*
X8393872Y-15228484D01*
X8393872Y-15228484D02*
X8355777Y-15228484D01*
X8355777Y-15228484D02*
X8336729Y-15238008D01*
X8336729Y-15238008D02*
X8327206Y-15247531D01*
X8327206Y-15247531D02*
X8317682Y-15266579D01*
X8317682Y-15266579D02*
X8317682Y-15314198D01*
X8317682Y-15314198D02*
X8327206Y-15333246D01*
X8327206Y-15333246D02*
X8336729Y-15342769D01*
X8336729Y-15342769D02*
X8355777Y-15352293D01*
X8355777Y-15352293D02*
X8393872Y-15352293D01*
X8393872Y-15352293D02*
X8412920Y-15342769D01*
X8412920Y-15342769D02*
X8422444Y-15333246D01*
X8422444Y-15333246D02*
X8431968Y-15314198D01*
X8603396Y-15295150D02*
X8603396Y-15428484D01*
X8555777Y-15218960D02*
X8508158Y-15361817D01*
X8508158Y-15361817D02*
X8631968Y-15361817D01*
X8698634Y-15228484D02*
X8698634Y-15266579D01*
X8774825Y-15228484D02*
X8774825Y-15266579D01*
X9070063Y-15504674D02*
X9060539Y-15495150D01*
X9060539Y-15495150D02*
X9041491Y-15466579D01*
X9041491Y-15466579D02*
X9031968Y-15447531D01*
X9031968Y-15447531D02*
X9022444Y-15418960D01*
X9022444Y-15418960D02*
X9012920Y-15371341D01*
X9012920Y-15371341D02*
X9012920Y-15333246D01*
X9012920Y-15333246D02*
X9022444Y-15285627D01*
X9022444Y-15285627D02*
X9031968Y-15257055D01*
X9031968Y-15257055D02*
X9041491Y-15238008D01*
X9041491Y-15238008D02*
X9060539Y-15209436D01*
X9060539Y-15209436D02*
X9070063Y-15199912D01*
X9127206Y-15228484D02*
X9251015Y-15228484D01*
X9251015Y-15228484D02*
X9184349Y-15304674D01*
X9184349Y-15304674D02*
X9212920Y-15304674D01*
X9212920Y-15304674D02*
X9231968Y-15314198D01*
X9231968Y-15314198D02*
X9241491Y-15323722D01*
X9241491Y-15323722D02*
X9251015Y-15342769D01*
X9251015Y-15342769D02*
X9251015Y-15390388D01*
X9251015Y-15390388D02*
X9241491Y-15409436D01*
X9241491Y-15409436D02*
X9231968Y-15418960D01*
X9231968Y-15418960D02*
X9212920Y-15428484D01*
X9212920Y-15428484D02*
X9155777Y-15428484D01*
X9155777Y-15428484D02*
X9136730Y-15418960D01*
X9136730Y-15418960D02*
X9127206Y-15409436D01*
X9422444Y-15295150D02*
X9422444Y-15428484D01*
X9374825Y-15218960D02*
X9327206Y-15361817D01*
X9327206Y-15361817D02*
X9451015Y-15361817D01*
X9679587Y-15428484D02*
X9679587Y-15228484D01*
X9765301Y-15428484D02*
X9765301Y-15323722D01*
X9765301Y-15323722D02*
X9755777Y-15304674D01*
X9755777Y-15304674D02*
X9736730Y-15295150D01*
X9736730Y-15295150D02*
X9708158Y-15295150D01*
X9708158Y-15295150D02*
X9689111Y-15304674D01*
X9689111Y-15304674D02*
X9679587Y-15314198D01*
X9889111Y-15428484D02*
X9870063Y-15418960D01*
X9870063Y-15418960D02*
X9860539Y-15409436D01*
X9860539Y-15409436D02*
X9851015Y-15390388D01*
X9851015Y-15390388D02*
X9851015Y-15333246D01*
X9851015Y-15333246D02*
X9860539Y-15314198D01*
X9860539Y-15314198D02*
X9870063Y-15304674D01*
X9870063Y-15304674D02*
X9889111Y-15295150D01*
X9889111Y-15295150D02*
X9917682Y-15295150D01*
X9917682Y-15295150D02*
X9936730Y-15304674D01*
X9936730Y-15304674D02*
X9946253Y-15314198D01*
X9946253Y-15314198D02*
X9955777Y-15333246D01*
X9955777Y-15333246D02*
X9955777Y-15390388D01*
X9955777Y-15390388D02*
X9946253Y-15409436D01*
X9946253Y-15409436D02*
X9936730Y-15418960D01*
X9936730Y-15418960D02*
X9917682Y-15428484D01*
X9917682Y-15428484D02*
X9889111Y-15428484D01*
X10070063Y-15428484D02*
X10051015Y-15418960D01*
X10051015Y-15418960D02*
X10041492Y-15399912D01*
X10041492Y-15399912D02*
X10041492Y-15228484D01*
X10222444Y-15418960D02*
X10203396Y-15428484D01*
X10203396Y-15428484D02*
X10165301Y-15428484D01*
X10165301Y-15428484D02*
X10146253Y-15418960D01*
X10146253Y-15418960D02*
X10136730Y-15399912D01*
X10136730Y-15399912D02*
X10136730Y-15323722D01*
X10136730Y-15323722D02*
X10146253Y-15304674D01*
X10146253Y-15304674D02*
X10165301Y-15295150D01*
X10165301Y-15295150D02*
X10203396Y-15295150D01*
X10203396Y-15295150D02*
X10222444Y-15304674D01*
X10222444Y-15304674D02*
X10231968Y-15323722D01*
X10231968Y-15323722D02*
X10231968Y-15342769D01*
X10231968Y-15342769D02*
X10136730Y-15361817D01*
X10308158Y-15418960D02*
X10327206Y-15428484D01*
X10327206Y-15428484D02*
X10365301Y-15428484D01*
X10365301Y-15428484D02*
X10384349Y-15418960D01*
X10384349Y-15418960D02*
X10393873Y-15399912D01*
X10393873Y-15399912D02*
X10393873Y-15390388D01*
X10393873Y-15390388D02*
X10384349Y-15371341D01*
X10384349Y-15371341D02*
X10365301Y-15361817D01*
X10365301Y-15361817D02*
X10336730Y-15361817D01*
X10336730Y-15361817D02*
X10317682Y-15352293D01*
X10317682Y-15352293D02*
X10308158Y-15333246D01*
X10308158Y-15333246D02*
X10308158Y-15323722D01*
X10308158Y-15323722D02*
X10317682Y-15304674D01*
X10317682Y-15304674D02*
X10336730Y-15295150D01*
X10336730Y-15295150D02*
X10365301Y-15295150D01*
X10365301Y-15295150D02*
X10384349Y-15304674D01*
X10460539Y-15504674D02*
X10470063Y-15495150D01*
X10470063Y-15495150D02*
X10489111Y-15466579D01*
X10489111Y-15466579D02*
X10498634Y-15447531D01*
X10498634Y-15447531D02*
X10508158Y-15418960D01*
X10508158Y-15418960D02*
X10517682Y-15371341D01*
X10517682Y-15371341D02*
X10517682Y-15333246D01*
X10517682Y-15333246D02*
X10508158Y-15285627D01*
X10508158Y-15285627D02*
X10498634Y-15257055D01*
X10498634Y-15257055D02*
X10489111Y-15238008D01*
X10489111Y-15238008D02*
X10470063Y-15209436D01*
X10470063Y-15209436D02*
X10460539Y-15199912D01*
D12*
X5444000Y-15652000D02*
X5495000Y-15601000D01*
X5444000Y-15550000D01*
X5393000Y-15601000D01*
X5444000Y-15652000D01*
D11*
X5860539Y-15692484D02*
X5746253Y-15692484D01*
X5803396Y-15692484D02*
X5803396Y-15492484D01*
X5803396Y-15492484D02*
X5784348Y-15521055D01*
X5784348Y-15521055D02*
X5765301Y-15540103D01*
X5765301Y-15540103D02*
X5746253Y-15549627D01*
X5946253Y-15673436D02*
X5955777Y-15682960D01*
X5955777Y-15682960D02*
X5946253Y-15692484D01*
X5946253Y-15692484D02*
X5936729Y-15682960D01*
X5936729Y-15682960D02*
X5946253Y-15673436D01*
X5946253Y-15673436D02*
X5946253Y-15692484D01*
X6079586Y-15492484D02*
X6098634Y-15492484D01*
X6098634Y-15492484D02*
X6117682Y-15502008D01*
X6117682Y-15502008D02*
X6127205Y-15511531D01*
X6127205Y-15511531D02*
X6136729Y-15530579D01*
X6136729Y-15530579D02*
X6146253Y-15568674D01*
X6146253Y-15568674D02*
X6146253Y-15616293D01*
X6146253Y-15616293D02*
X6136729Y-15654388D01*
X6136729Y-15654388D02*
X6127205Y-15673436D01*
X6127205Y-15673436D02*
X6117682Y-15682960D01*
X6117682Y-15682960D02*
X6098634Y-15692484D01*
X6098634Y-15692484D02*
X6079586Y-15692484D01*
X6079586Y-15692484D02*
X6060539Y-15682960D01*
X6060539Y-15682960D02*
X6051015Y-15673436D01*
X6051015Y-15673436D02*
X6041491Y-15654388D01*
X6041491Y-15654388D02*
X6031967Y-15616293D01*
X6031967Y-15616293D02*
X6031967Y-15568674D01*
X6031967Y-15568674D02*
X6041491Y-15530579D01*
X6041491Y-15530579D02*
X6051015Y-15511531D01*
X6051015Y-15511531D02*
X6060539Y-15502008D01*
X6060539Y-15502008D02*
X6079586Y-15492484D01*
X6222443Y-15511531D02*
X6231967Y-15502008D01*
X6231967Y-15502008D02*
X6251015Y-15492484D01*
X6251015Y-15492484D02*
X6298634Y-15492484D01*
X6298634Y-15492484D02*
X6317682Y-15502008D01*
X6317682Y-15502008D02*
X6327205Y-15511531D01*
X6327205Y-15511531D02*
X6336729Y-15530579D01*
X6336729Y-15530579D02*
X6336729Y-15549627D01*
X6336729Y-15549627D02*
X6327205Y-15578198D01*
X6327205Y-15578198D02*
X6212920Y-15692484D01*
X6212920Y-15692484D02*
X6336729Y-15692484D01*
X6460539Y-15492484D02*
X6479586Y-15492484D01*
X6479586Y-15492484D02*
X6498634Y-15502008D01*
X6498634Y-15502008D02*
X6508158Y-15511531D01*
X6508158Y-15511531D02*
X6517682Y-15530579D01*
X6517682Y-15530579D02*
X6527205Y-15568674D01*
X6527205Y-15568674D02*
X6527205Y-15616293D01*
X6527205Y-15616293D02*
X6517682Y-15654388D01*
X6517682Y-15654388D02*
X6508158Y-15673436D01*
X6508158Y-15673436D02*
X6498634Y-15682960D01*
X6498634Y-15682960D02*
X6479586Y-15692484D01*
X6479586Y-15692484D02*
X6460539Y-15692484D01*
X6460539Y-15692484D02*
X6441491Y-15682960D01*
X6441491Y-15682960D02*
X6431967Y-15673436D01*
X6431967Y-15673436D02*
X6422443Y-15654388D01*
X6422443Y-15654388D02*
X6412920Y-15616293D01*
X6412920Y-15616293D02*
X6412920Y-15568674D01*
X6412920Y-15568674D02*
X6422443Y-15530579D01*
X6422443Y-15530579D02*
X6431967Y-15511531D01*
X6431967Y-15511531D02*
X6441491Y-15502008D01*
X6441491Y-15502008D02*
X6460539Y-15492484D01*
X6612920Y-15692484D02*
X6612920Y-15559150D01*
X6612920Y-15578198D02*
X6622443Y-15568674D01*
X6622443Y-15568674D02*
X6641491Y-15559150D01*
X6641491Y-15559150D02*
X6670063Y-15559150D01*
X6670063Y-15559150D02*
X6689110Y-15568674D01*
X6689110Y-15568674D02*
X6698634Y-15587722D01*
X6698634Y-15587722D02*
X6698634Y-15692484D01*
X6698634Y-15587722D02*
X6708158Y-15568674D01*
X6708158Y-15568674D02*
X6727205Y-15559150D01*
X6727205Y-15559150D02*
X6755777Y-15559150D01*
X6755777Y-15559150D02*
X6774824Y-15568674D01*
X6774824Y-15568674D02*
X6784348Y-15587722D01*
X6784348Y-15587722D02*
X6784348Y-15692484D01*
X6879586Y-15692484D02*
X6879586Y-15559150D01*
X6879586Y-15578198D02*
X6889110Y-15568674D01*
X6889110Y-15568674D02*
X6908158Y-15559150D01*
X6908158Y-15559150D02*
X6936729Y-15559150D01*
X6936729Y-15559150D02*
X6955777Y-15568674D01*
X6955777Y-15568674D02*
X6965301Y-15587722D01*
X6965301Y-15587722D02*
X6965301Y-15692484D01*
X6965301Y-15587722D02*
X6974824Y-15568674D01*
X6974824Y-15568674D02*
X6993872Y-15559150D01*
X6993872Y-15559150D02*
X7022443Y-15559150D01*
X7022443Y-15559150D02*
X7041491Y-15568674D01*
X7041491Y-15568674D02*
X7051015Y-15587722D01*
X7051015Y-15587722D02*
X7051015Y-15692484D01*
X7441491Y-15482960D02*
X7270063Y-15740103D01*
X7698634Y-15492484D02*
X7717682Y-15492484D01*
X7717682Y-15492484D02*
X7736729Y-15502008D01*
X7736729Y-15502008D02*
X7746253Y-15511531D01*
X7746253Y-15511531D02*
X7755777Y-15530579D01*
X7755777Y-15530579D02*
X7765301Y-15568674D01*
X7765301Y-15568674D02*
X7765301Y-15616293D01*
X7765301Y-15616293D02*
X7755777Y-15654388D01*
X7755777Y-15654388D02*
X7746253Y-15673436D01*
X7746253Y-15673436D02*
X7736729Y-15682960D01*
X7736729Y-15682960D02*
X7717682Y-15692484D01*
X7717682Y-15692484D02*
X7698634Y-15692484D01*
X7698634Y-15692484D02*
X7679586Y-15682960D01*
X7679586Y-15682960D02*
X7670063Y-15673436D01*
X7670063Y-15673436D02*
X7660539Y-15654388D01*
X7660539Y-15654388D02*
X7651015Y-15616293D01*
X7651015Y-15616293D02*
X7651015Y-15568674D01*
X7651015Y-15568674D02*
X7660539Y-15530579D01*
X7660539Y-15530579D02*
X7670063Y-15511531D01*
X7670063Y-15511531D02*
X7679586Y-15502008D01*
X7679586Y-15502008D02*
X7698634Y-15492484D01*
X7851015Y-15673436D02*
X7860539Y-15682960D01*
X7860539Y-15682960D02*
X7851015Y-15692484D01*
X7851015Y-15692484D02*
X7841491Y-15682960D01*
X7841491Y-15682960D02*
X7851015Y-15673436D01*
X7851015Y-15673436D02*
X7851015Y-15692484D01*
X7984348Y-15492484D02*
X8003396Y-15492484D01*
X8003396Y-15492484D02*
X8022444Y-15502008D01*
X8022444Y-15502008D02*
X8031967Y-15511531D01*
X8031967Y-15511531D02*
X8041491Y-15530579D01*
X8041491Y-15530579D02*
X8051015Y-15568674D01*
X8051015Y-15568674D02*
X8051015Y-15616293D01*
X8051015Y-15616293D02*
X8041491Y-15654388D01*
X8041491Y-15654388D02*
X8031967Y-15673436D01*
X8031967Y-15673436D02*
X8022444Y-15682960D01*
X8022444Y-15682960D02*
X8003396Y-15692484D01*
X8003396Y-15692484D02*
X7984348Y-15692484D01*
X7984348Y-15692484D02*
X7965301Y-15682960D01*
X7965301Y-15682960D02*
X7955777Y-15673436D01*
X7955777Y-15673436D02*
X7946253Y-15654388D01*
X7946253Y-15654388D02*
X7936729Y-15616293D01*
X7936729Y-15616293D02*
X7936729Y-15568674D01*
X7936729Y-15568674D02*
X7946253Y-15530579D01*
X7946253Y-15530579D02*
X7955777Y-15511531D01*
X7955777Y-15511531D02*
X7965301Y-15502008D01*
X7965301Y-15502008D02*
X7984348Y-15492484D01*
X8222444Y-15559150D02*
X8222444Y-15692484D01*
X8174825Y-15482960D02*
X8127206Y-15625817D01*
X8127206Y-15625817D02*
X8251015Y-15625817D01*
X8365301Y-15492484D02*
X8384348Y-15492484D01*
X8384348Y-15492484D02*
X8403396Y-15502008D01*
X8403396Y-15502008D02*
X8412920Y-15511531D01*
X8412920Y-15511531D02*
X8422444Y-15530579D01*
X8422444Y-15530579D02*
X8431968Y-15568674D01*
X8431968Y-15568674D02*
X8431968Y-15616293D01*
X8431968Y-15616293D02*
X8422444Y-15654388D01*
X8422444Y-15654388D02*
X8412920Y-15673436D01*
X8412920Y-15673436D02*
X8403396Y-15682960D01*
X8403396Y-15682960D02*
X8384348Y-15692484D01*
X8384348Y-15692484D02*
X8365301Y-15692484D01*
X8365301Y-15692484D02*
X8346253Y-15682960D01*
X8346253Y-15682960D02*
X8336729Y-15673436D01*
X8336729Y-15673436D02*
X8327206Y-15654388D01*
X8327206Y-15654388D02*
X8317682Y-15616293D01*
X8317682Y-15616293D02*
X8317682Y-15568674D01*
X8317682Y-15568674D02*
X8327206Y-15530579D01*
X8327206Y-15530579D02*
X8336729Y-15511531D01*
X8336729Y-15511531D02*
X8346253Y-15502008D01*
X8346253Y-15502008D02*
X8365301Y-15492484D01*
X8508158Y-15511531D02*
X8517682Y-15502008D01*
X8517682Y-15502008D02*
X8536729Y-15492484D01*
X8536729Y-15492484D02*
X8584349Y-15492484D01*
X8584349Y-15492484D02*
X8603396Y-15502008D01*
X8603396Y-15502008D02*
X8612920Y-15511531D01*
X8612920Y-15511531D02*
X8622444Y-15530579D01*
X8622444Y-15530579D02*
X8622444Y-15549627D01*
X8622444Y-15549627D02*
X8612920Y-15578198D01*
X8612920Y-15578198D02*
X8498634Y-15692484D01*
X8498634Y-15692484D02*
X8622444Y-15692484D01*
X8698634Y-15492484D02*
X8698634Y-15530579D01*
X8774825Y-15492484D02*
X8774825Y-15530579D01*
X9070063Y-15768674D02*
X9060539Y-15759150D01*
X9060539Y-15759150D02*
X9041491Y-15730579D01*
X9041491Y-15730579D02*
X9031968Y-15711531D01*
X9031968Y-15711531D02*
X9022444Y-15682960D01*
X9022444Y-15682960D02*
X9012920Y-15635341D01*
X9012920Y-15635341D02*
X9012920Y-15597246D01*
X9012920Y-15597246D02*
X9022444Y-15549627D01*
X9022444Y-15549627D02*
X9031968Y-15521055D01*
X9031968Y-15521055D02*
X9041491Y-15502008D01*
X9041491Y-15502008D02*
X9060539Y-15473436D01*
X9060539Y-15473436D02*
X9070063Y-15463912D01*
X9231968Y-15559150D02*
X9231968Y-15692484D01*
X9184349Y-15482960D02*
X9136730Y-15625817D01*
X9136730Y-15625817D02*
X9260539Y-15625817D01*
X9317682Y-15492484D02*
X9441491Y-15492484D01*
X9441491Y-15492484D02*
X9374825Y-15568674D01*
X9374825Y-15568674D02*
X9403396Y-15568674D01*
X9403396Y-15568674D02*
X9422444Y-15578198D01*
X9422444Y-15578198D02*
X9431968Y-15587722D01*
X9431968Y-15587722D02*
X9441491Y-15606769D01*
X9441491Y-15606769D02*
X9441491Y-15654388D01*
X9441491Y-15654388D02*
X9431968Y-15673436D01*
X9431968Y-15673436D02*
X9422444Y-15682960D01*
X9422444Y-15682960D02*
X9403396Y-15692484D01*
X9403396Y-15692484D02*
X9346253Y-15692484D01*
X9346253Y-15692484D02*
X9327206Y-15682960D01*
X9327206Y-15682960D02*
X9317682Y-15673436D01*
X9679587Y-15692484D02*
X9679587Y-15492484D01*
X9765301Y-15692484D02*
X9765301Y-15587722D01*
X9765301Y-15587722D02*
X9755777Y-15568674D01*
X9755777Y-15568674D02*
X9736730Y-15559150D01*
X9736730Y-15559150D02*
X9708158Y-15559150D01*
X9708158Y-15559150D02*
X9689111Y-15568674D01*
X9689111Y-15568674D02*
X9679587Y-15578198D01*
X9889111Y-15692484D02*
X9870063Y-15682960D01*
X9870063Y-15682960D02*
X9860539Y-15673436D01*
X9860539Y-15673436D02*
X9851015Y-15654388D01*
X9851015Y-15654388D02*
X9851015Y-15597246D01*
X9851015Y-15597246D02*
X9860539Y-15578198D01*
X9860539Y-15578198D02*
X9870063Y-15568674D01*
X9870063Y-15568674D02*
X9889111Y-15559150D01*
X9889111Y-15559150D02*
X9917682Y-15559150D01*
X9917682Y-15559150D02*
X9936730Y-15568674D01*
X9936730Y-15568674D02*
X9946253Y-15578198D01*
X9946253Y-15578198D02*
X9955777Y-15597246D01*
X9955777Y-15597246D02*
X9955777Y-15654388D01*
X9955777Y-15654388D02*
X9946253Y-15673436D01*
X9946253Y-15673436D02*
X9936730Y-15682960D01*
X9936730Y-15682960D02*
X9917682Y-15692484D01*
X9917682Y-15692484D02*
X9889111Y-15692484D01*
X10070063Y-15692484D02*
X10051015Y-15682960D01*
X10051015Y-15682960D02*
X10041492Y-15663912D01*
X10041492Y-15663912D02*
X10041492Y-15492484D01*
X10222444Y-15682960D02*
X10203396Y-15692484D01*
X10203396Y-15692484D02*
X10165301Y-15692484D01*
X10165301Y-15692484D02*
X10146253Y-15682960D01*
X10146253Y-15682960D02*
X10136730Y-15663912D01*
X10136730Y-15663912D02*
X10136730Y-15587722D01*
X10136730Y-15587722D02*
X10146253Y-15568674D01*
X10146253Y-15568674D02*
X10165301Y-15559150D01*
X10165301Y-15559150D02*
X10203396Y-15559150D01*
X10203396Y-15559150D02*
X10222444Y-15568674D01*
X10222444Y-15568674D02*
X10231968Y-15587722D01*
X10231968Y-15587722D02*
X10231968Y-15606769D01*
X10231968Y-15606769D02*
X10136730Y-15625817D01*
X10308158Y-15682960D02*
X10327206Y-15692484D01*
X10327206Y-15692484D02*
X10365301Y-15692484D01*
X10365301Y-15692484D02*
X10384349Y-15682960D01*
X10384349Y-15682960D02*
X10393873Y-15663912D01*
X10393873Y-15663912D02*
X10393873Y-15654388D01*
X10393873Y-15654388D02*
X10384349Y-15635341D01*
X10384349Y-15635341D02*
X10365301Y-15625817D01*
X10365301Y-15625817D02*
X10336730Y-15625817D01*
X10336730Y-15625817D02*
X10317682Y-15616293D01*
X10317682Y-15616293D02*
X10308158Y-15597246D01*
X10308158Y-15597246D02*
X10308158Y-15587722D01*
X10308158Y-15587722D02*
X10317682Y-15568674D01*
X10317682Y-15568674D02*
X10336730Y-15559150D01*
X10336730Y-15559150D02*
X10365301Y-15559150D01*
X10365301Y-15559150D02*
X10384349Y-15568674D01*
X10460539Y-15768674D02*
X10470063Y-15759150D01*
X10470063Y-15759150D02*
X10489111Y-15730579D01*
X10489111Y-15730579D02*
X10498634Y-15711531D01*
X10498634Y-15711531D02*
X10508158Y-15682960D01*
X10508158Y-15682960D02*
X10517682Y-15635341D01*
X10517682Y-15635341D02*
X10517682Y-15597246D01*
X10517682Y-15597246D02*
X10508158Y-15549627D01*
X10508158Y-15549627D02*
X10498634Y-15521055D01*
X10498634Y-15521055D02*
X10489111Y-15502008D01*
X10489111Y-15502008D02*
X10470063Y-15473436D01*
X10470063Y-15473436D02*
X10460539Y-15463912D01*
D13*
X5385000Y-15810000D02*
X5495000Y-15920000D01*
X5495000Y-15810000D02*
X5385000Y-15920000D01*
X5495000Y-15865000D02*
G75*
G02*
X5385000Y-15865000I-55000J0D01*
G01*
X5385000Y-15865000D02*
G75*
G02*
X5495000Y-15865000I55000J0D01*
G01*
D11*
X5860539Y-15956484D02*
X5746253Y-15956484D01*
X5803396Y-15956484D02*
X5803396Y-15756484D01*
X5803396Y-15756484D02*
X5784348Y-15785055D01*
X5784348Y-15785055D02*
X5765301Y-15804103D01*
X5765301Y-15804103D02*
X5746253Y-15813627D01*
X5946253Y-15937436D02*
X5955777Y-15946960D01*
X5955777Y-15946960D02*
X5946253Y-15956484D01*
X5946253Y-15956484D02*
X5936729Y-15946960D01*
X5936729Y-15946960D02*
X5946253Y-15937436D01*
X5946253Y-15937436D02*
X5946253Y-15956484D01*
X6146253Y-15956484D02*
X6031967Y-15956484D01*
X6089110Y-15956484D02*
X6089110Y-15756484D01*
X6089110Y-15756484D02*
X6070062Y-15785055D01*
X6070062Y-15785055D02*
X6051015Y-15804103D01*
X6051015Y-15804103D02*
X6031967Y-15813627D01*
X6270062Y-15756484D02*
X6289110Y-15756484D01*
X6289110Y-15756484D02*
X6308158Y-15766008D01*
X6308158Y-15766008D02*
X6317682Y-15775531D01*
X6317682Y-15775531D02*
X6327205Y-15794579D01*
X6327205Y-15794579D02*
X6336729Y-15832674D01*
X6336729Y-15832674D02*
X6336729Y-15880293D01*
X6336729Y-15880293D02*
X6327205Y-15918388D01*
X6327205Y-15918388D02*
X6317682Y-15937436D01*
X6317682Y-15937436D02*
X6308158Y-15946960D01*
X6308158Y-15946960D02*
X6289110Y-15956484D01*
X6289110Y-15956484D02*
X6270062Y-15956484D01*
X6270062Y-15956484D02*
X6251015Y-15946960D01*
X6251015Y-15946960D02*
X6241491Y-15937436D01*
X6241491Y-15937436D02*
X6231967Y-15918388D01*
X6231967Y-15918388D02*
X6222443Y-15880293D01*
X6222443Y-15880293D02*
X6222443Y-15832674D01*
X6222443Y-15832674D02*
X6231967Y-15794579D01*
X6231967Y-15794579D02*
X6241491Y-15775531D01*
X6241491Y-15775531D02*
X6251015Y-15766008D01*
X6251015Y-15766008D02*
X6270062Y-15756484D01*
X6460539Y-15756484D02*
X6479586Y-15756484D01*
X6479586Y-15756484D02*
X6498634Y-15766008D01*
X6498634Y-15766008D02*
X6508158Y-15775531D01*
X6508158Y-15775531D02*
X6517682Y-15794579D01*
X6517682Y-15794579D02*
X6527205Y-15832674D01*
X6527205Y-15832674D02*
X6527205Y-15880293D01*
X6527205Y-15880293D02*
X6517682Y-15918388D01*
X6517682Y-15918388D02*
X6508158Y-15937436D01*
X6508158Y-15937436D02*
X6498634Y-15946960D01*
X6498634Y-15946960D02*
X6479586Y-15956484D01*
X6479586Y-15956484D02*
X6460539Y-15956484D01*
X6460539Y-15956484D02*
X6441491Y-15946960D01*
X6441491Y-15946960D02*
X6431967Y-15937436D01*
X6431967Y-15937436D02*
X6422443Y-15918388D01*
X6422443Y-15918388D02*
X6412920Y-15880293D01*
X6412920Y-15880293D02*
X6412920Y-15832674D01*
X6412920Y-15832674D02*
X6422443Y-15794579D01*
X6422443Y-15794579D02*
X6431967Y-15775531D01*
X6431967Y-15775531D02*
X6441491Y-15766008D01*
X6441491Y-15766008D02*
X6460539Y-15756484D01*
X6612920Y-15956484D02*
X6612920Y-15823150D01*
X6612920Y-15842198D02*
X6622443Y-15832674D01*
X6622443Y-15832674D02*
X6641491Y-15823150D01*
X6641491Y-15823150D02*
X6670063Y-15823150D01*
X6670063Y-15823150D02*
X6689110Y-15832674D01*
X6689110Y-15832674D02*
X6698634Y-15851722D01*
X6698634Y-15851722D02*
X6698634Y-15956484D01*
X6698634Y-15851722D02*
X6708158Y-15832674D01*
X6708158Y-15832674D02*
X6727205Y-15823150D01*
X6727205Y-15823150D02*
X6755777Y-15823150D01*
X6755777Y-15823150D02*
X6774824Y-15832674D01*
X6774824Y-15832674D02*
X6784348Y-15851722D01*
X6784348Y-15851722D02*
X6784348Y-15956484D01*
X6879586Y-15956484D02*
X6879586Y-15823150D01*
X6879586Y-15842198D02*
X6889110Y-15832674D01*
X6889110Y-15832674D02*
X6908158Y-15823150D01*
X6908158Y-15823150D02*
X6936729Y-15823150D01*
X6936729Y-15823150D02*
X6955777Y-15832674D01*
X6955777Y-15832674D02*
X6965301Y-15851722D01*
X6965301Y-15851722D02*
X6965301Y-15956484D01*
X6965301Y-15851722D02*
X6974824Y-15832674D01*
X6974824Y-15832674D02*
X6993872Y-15823150D01*
X6993872Y-15823150D02*
X7022443Y-15823150D01*
X7022443Y-15823150D02*
X7041491Y-15832674D01*
X7041491Y-15832674D02*
X7051015Y-15851722D01*
X7051015Y-15851722D02*
X7051015Y-15956484D01*
X7441491Y-15746960D02*
X7270063Y-16004103D01*
X7698634Y-15756484D02*
X7717682Y-15756484D01*
X7717682Y-15756484D02*
X7736729Y-15766008D01*
X7736729Y-15766008D02*
X7746253Y-15775531D01*
X7746253Y-15775531D02*
X7755777Y-15794579D01*
X7755777Y-15794579D02*
X7765301Y-15832674D01*
X7765301Y-15832674D02*
X7765301Y-15880293D01*
X7765301Y-15880293D02*
X7755777Y-15918388D01*
X7755777Y-15918388D02*
X7746253Y-15937436D01*
X7746253Y-15937436D02*
X7736729Y-15946960D01*
X7736729Y-15946960D02*
X7717682Y-15956484D01*
X7717682Y-15956484D02*
X7698634Y-15956484D01*
X7698634Y-15956484D02*
X7679586Y-15946960D01*
X7679586Y-15946960D02*
X7670063Y-15937436D01*
X7670063Y-15937436D02*
X7660539Y-15918388D01*
X7660539Y-15918388D02*
X7651015Y-15880293D01*
X7651015Y-15880293D02*
X7651015Y-15832674D01*
X7651015Y-15832674D02*
X7660539Y-15794579D01*
X7660539Y-15794579D02*
X7670063Y-15775531D01*
X7670063Y-15775531D02*
X7679586Y-15766008D01*
X7679586Y-15766008D02*
X7698634Y-15756484D01*
X7851015Y-15937436D02*
X7860539Y-15946960D01*
X7860539Y-15946960D02*
X7851015Y-15956484D01*
X7851015Y-15956484D02*
X7841491Y-15946960D01*
X7841491Y-15946960D02*
X7851015Y-15937436D01*
X7851015Y-15937436D02*
X7851015Y-15956484D01*
X7984348Y-15756484D02*
X8003396Y-15756484D01*
X8003396Y-15756484D02*
X8022444Y-15766008D01*
X8022444Y-15766008D02*
X8031967Y-15775531D01*
X8031967Y-15775531D02*
X8041491Y-15794579D01*
X8041491Y-15794579D02*
X8051015Y-15832674D01*
X8051015Y-15832674D02*
X8051015Y-15880293D01*
X8051015Y-15880293D02*
X8041491Y-15918388D01*
X8041491Y-15918388D02*
X8031967Y-15937436D01*
X8031967Y-15937436D02*
X8022444Y-15946960D01*
X8022444Y-15946960D02*
X8003396Y-15956484D01*
X8003396Y-15956484D02*
X7984348Y-15956484D01*
X7984348Y-15956484D02*
X7965301Y-15946960D01*
X7965301Y-15946960D02*
X7955777Y-15937436D01*
X7955777Y-15937436D02*
X7946253Y-15918388D01*
X7946253Y-15918388D02*
X7936729Y-15880293D01*
X7936729Y-15880293D02*
X7936729Y-15832674D01*
X7936729Y-15832674D02*
X7946253Y-15794579D01*
X7946253Y-15794579D02*
X7955777Y-15775531D01*
X7955777Y-15775531D02*
X7965301Y-15766008D01*
X7965301Y-15766008D02*
X7984348Y-15756484D01*
X8222444Y-15823150D02*
X8222444Y-15956484D01*
X8174825Y-15746960D02*
X8127206Y-15889817D01*
X8127206Y-15889817D02*
X8251015Y-15889817D01*
X8308158Y-15756484D02*
X8431968Y-15756484D01*
X8431968Y-15756484D02*
X8365301Y-15832674D01*
X8365301Y-15832674D02*
X8393872Y-15832674D01*
X8393872Y-15832674D02*
X8412920Y-15842198D01*
X8412920Y-15842198D02*
X8422444Y-15851722D01*
X8422444Y-15851722D02*
X8431968Y-15870769D01*
X8431968Y-15870769D02*
X8431968Y-15918388D01*
X8431968Y-15918388D02*
X8422444Y-15937436D01*
X8422444Y-15937436D02*
X8412920Y-15946960D01*
X8412920Y-15946960D02*
X8393872Y-15956484D01*
X8393872Y-15956484D02*
X8336729Y-15956484D01*
X8336729Y-15956484D02*
X8317682Y-15946960D01*
X8317682Y-15946960D02*
X8308158Y-15937436D01*
X8498634Y-15756484D02*
X8622444Y-15756484D01*
X8622444Y-15756484D02*
X8555777Y-15832674D01*
X8555777Y-15832674D02*
X8584349Y-15832674D01*
X8584349Y-15832674D02*
X8603396Y-15842198D01*
X8603396Y-15842198D02*
X8612920Y-15851722D01*
X8612920Y-15851722D02*
X8622444Y-15870769D01*
X8622444Y-15870769D02*
X8622444Y-15918388D01*
X8622444Y-15918388D02*
X8612920Y-15937436D01*
X8612920Y-15937436D02*
X8603396Y-15946960D01*
X8603396Y-15946960D02*
X8584349Y-15956484D01*
X8584349Y-15956484D02*
X8527206Y-15956484D01*
X8527206Y-15956484D02*
X8508158Y-15946960D01*
X8508158Y-15946960D02*
X8498634Y-15937436D01*
X8698634Y-15756484D02*
X8698634Y-15794579D01*
X8774825Y-15756484D02*
X8774825Y-15794579D01*
X9070063Y-16032674D02*
X9060539Y-16023150D01*
X9060539Y-16023150D02*
X9041491Y-15994579D01*
X9041491Y-15994579D02*
X9031968Y-15975531D01*
X9031968Y-15975531D02*
X9022444Y-15946960D01*
X9022444Y-15946960D02*
X9012920Y-15899341D01*
X9012920Y-15899341D02*
X9012920Y-15861246D01*
X9012920Y-15861246D02*
X9022444Y-15813627D01*
X9022444Y-15813627D02*
X9031968Y-15785055D01*
X9031968Y-15785055D02*
X9041491Y-15766008D01*
X9041491Y-15766008D02*
X9060539Y-15737436D01*
X9060539Y-15737436D02*
X9070063Y-15727912D01*
X9231968Y-15823150D02*
X9231968Y-15956484D01*
X9184349Y-15746960D02*
X9136730Y-15889817D01*
X9136730Y-15889817D02*
X9260539Y-15889817D01*
X9489111Y-15956484D02*
X9489111Y-15756484D01*
X9574825Y-15956484D02*
X9574825Y-15851722D01*
X9574825Y-15851722D02*
X9565301Y-15832674D01*
X9565301Y-15832674D02*
X9546253Y-15823150D01*
X9546253Y-15823150D02*
X9517682Y-15823150D01*
X9517682Y-15823150D02*
X9498634Y-15832674D01*
X9498634Y-15832674D02*
X9489111Y-15842198D01*
X9698634Y-15956484D02*
X9679587Y-15946960D01*
X9679587Y-15946960D02*
X9670063Y-15937436D01*
X9670063Y-15937436D02*
X9660539Y-15918388D01*
X9660539Y-15918388D02*
X9660539Y-15861246D01*
X9660539Y-15861246D02*
X9670063Y-15842198D01*
X9670063Y-15842198D02*
X9679587Y-15832674D01*
X9679587Y-15832674D02*
X9698634Y-15823150D01*
X9698634Y-15823150D02*
X9727206Y-15823150D01*
X9727206Y-15823150D02*
X9746253Y-15832674D01*
X9746253Y-15832674D02*
X9755777Y-15842198D01*
X9755777Y-15842198D02*
X9765301Y-15861246D01*
X9765301Y-15861246D02*
X9765301Y-15918388D01*
X9765301Y-15918388D02*
X9755777Y-15937436D01*
X9755777Y-15937436D02*
X9746253Y-15946960D01*
X9746253Y-15946960D02*
X9727206Y-15956484D01*
X9727206Y-15956484D02*
X9698634Y-15956484D01*
X9879587Y-15956484D02*
X9860539Y-15946960D01*
X9860539Y-15946960D02*
X9851015Y-15927912D01*
X9851015Y-15927912D02*
X9851015Y-15756484D01*
X10031968Y-15946960D02*
X10012920Y-15956484D01*
X10012920Y-15956484D02*
X9974825Y-15956484D01*
X9974825Y-15956484D02*
X9955777Y-15946960D01*
X9955777Y-15946960D02*
X9946253Y-15927912D01*
X9946253Y-15927912D02*
X9946253Y-15851722D01*
X9946253Y-15851722D02*
X9955777Y-15832674D01*
X9955777Y-15832674D02*
X9974825Y-15823150D01*
X9974825Y-15823150D02*
X10012920Y-15823150D01*
X10012920Y-15823150D02*
X10031968Y-15832674D01*
X10031968Y-15832674D02*
X10041492Y-15851722D01*
X10041492Y-15851722D02*
X10041492Y-15870769D01*
X10041492Y-15870769D02*
X9946253Y-15889817D01*
X10117682Y-15946960D02*
X10136730Y-15956484D01*
X10136730Y-15956484D02*
X10174825Y-15956484D01*
X10174825Y-15956484D02*
X10193873Y-15946960D01*
X10193873Y-15946960D02*
X10203396Y-15927912D01*
X10203396Y-15927912D02*
X10203396Y-15918388D01*
X10203396Y-15918388D02*
X10193873Y-15899341D01*
X10193873Y-15899341D02*
X10174825Y-15889817D01*
X10174825Y-15889817D02*
X10146253Y-15889817D01*
X10146253Y-15889817D02*
X10127206Y-15880293D01*
X10127206Y-15880293D02*
X10117682Y-15861246D01*
X10117682Y-15861246D02*
X10117682Y-15851722D01*
X10117682Y-15851722D02*
X10127206Y-15832674D01*
X10127206Y-15832674D02*
X10146253Y-15823150D01*
X10146253Y-15823150D02*
X10174825Y-15823150D01*
X10174825Y-15823150D02*
X10193873Y-15832674D01*
X10270063Y-16032674D02*
X10279587Y-16023150D01*
X10279587Y-16023150D02*
X10298634Y-15994579D01*
X10298634Y-15994579D02*
X10308158Y-15975531D01*
X10308158Y-15975531D02*
X10317682Y-15946960D01*
X10317682Y-15946960D02*
X10327206Y-15899341D01*
X10327206Y-15899341D02*
X10327206Y-15861246D01*
X10327206Y-15861246D02*
X10317682Y-15813627D01*
X10317682Y-15813627D02*
X10308158Y-15785055D01*
X10308158Y-15785055D02*
X10298634Y-15766008D01*
X10298634Y-15766008D02*
X10279587Y-15737436D01*
X10279587Y-15737436D02*
X10270063Y-15727912D01*
X5295000Y-16029000D02*
X5495000Y-16229000D01*
X5495000Y-16029000D02*
X5295000Y-16229000D01*
X5395000Y-16029000D02*
X5395000Y-16229000D01*
X5295000Y-16129000D02*
X5495000Y-16129000D01*
X5736729Y-16020484D02*
X5860539Y-16020484D01*
X5860539Y-16020484D02*
X5793872Y-16096674D01*
X5793872Y-16096674D02*
X5822443Y-16096674D01*
X5822443Y-16096674D02*
X5841491Y-16106198D01*
X5841491Y-16106198D02*
X5851015Y-16115722D01*
X5851015Y-16115722D02*
X5860539Y-16134769D01*
X5860539Y-16134769D02*
X5860539Y-16182388D01*
X5860539Y-16182388D02*
X5851015Y-16201436D01*
X5851015Y-16201436D02*
X5841491Y-16210960D01*
X5841491Y-16210960D02*
X5822443Y-16220484D01*
X5822443Y-16220484D02*
X5765301Y-16220484D01*
X5765301Y-16220484D02*
X5746253Y-16210960D01*
X5746253Y-16210960D02*
X5736729Y-16201436D01*
X5946253Y-16201436D02*
X5955777Y-16210960D01*
X5955777Y-16210960D02*
X5946253Y-16220484D01*
X5946253Y-16220484D02*
X5936729Y-16210960D01*
X5936729Y-16210960D02*
X5946253Y-16201436D01*
X5946253Y-16201436D02*
X5946253Y-16220484D01*
X6022443Y-16020484D02*
X6155777Y-16020484D01*
X6155777Y-16020484D02*
X6070062Y-16220484D01*
X6270062Y-16020484D02*
X6289110Y-16020484D01*
X6289110Y-16020484D02*
X6308158Y-16030008D01*
X6308158Y-16030008D02*
X6317682Y-16039531D01*
X6317682Y-16039531D02*
X6327205Y-16058579D01*
X6327205Y-16058579D02*
X6336729Y-16096674D01*
X6336729Y-16096674D02*
X6336729Y-16144293D01*
X6336729Y-16144293D02*
X6327205Y-16182388D01*
X6327205Y-16182388D02*
X6317682Y-16201436D01*
X6317682Y-16201436D02*
X6308158Y-16210960D01*
X6308158Y-16210960D02*
X6289110Y-16220484D01*
X6289110Y-16220484D02*
X6270062Y-16220484D01*
X6270062Y-16220484D02*
X6251015Y-16210960D01*
X6251015Y-16210960D02*
X6241491Y-16201436D01*
X6241491Y-16201436D02*
X6231967Y-16182388D01*
X6231967Y-16182388D02*
X6222443Y-16144293D01*
X6222443Y-16144293D02*
X6222443Y-16096674D01*
X6222443Y-16096674D02*
X6231967Y-16058579D01*
X6231967Y-16058579D02*
X6241491Y-16039531D01*
X6241491Y-16039531D02*
X6251015Y-16030008D01*
X6251015Y-16030008D02*
X6270062Y-16020484D01*
X6460539Y-16020484D02*
X6479586Y-16020484D01*
X6479586Y-16020484D02*
X6498634Y-16030008D01*
X6498634Y-16030008D02*
X6508158Y-16039531D01*
X6508158Y-16039531D02*
X6517682Y-16058579D01*
X6517682Y-16058579D02*
X6527205Y-16096674D01*
X6527205Y-16096674D02*
X6527205Y-16144293D01*
X6527205Y-16144293D02*
X6517682Y-16182388D01*
X6517682Y-16182388D02*
X6508158Y-16201436D01*
X6508158Y-16201436D02*
X6498634Y-16210960D01*
X6498634Y-16210960D02*
X6479586Y-16220484D01*
X6479586Y-16220484D02*
X6460539Y-16220484D01*
X6460539Y-16220484D02*
X6441491Y-16210960D01*
X6441491Y-16210960D02*
X6431967Y-16201436D01*
X6431967Y-16201436D02*
X6422443Y-16182388D01*
X6422443Y-16182388D02*
X6412920Y-16144293D01*
X6412920Y-16144293D02*
X6412920Y-16096674D01*
X6412920Y-16096674D02*
X6422443Y-16058579D01*
X6422443Y-16058579D02*
X6431967Y-16039531D01*
X6431967Y-16039531D02*
X6441491Y-16030008D01*
X6441491Y-16030008D02*
X6460539Y-16020484D01*
X6612920Y-16220484D02*
X6612920Y-16087150D01*
X6612920Y-16106198D02*
X6622443Y-16096674D01*
X6622443Y-16096674D02*
X6641491Y-16087150D01*
X6641491Y-16087150D02*
X6670063Y-16087150D01*
X6670063Y-16087150D02*
X6689110Y-16096674D01*
X6689110Y-16096674D02*
X6698634Y-16115722D01*
X6698634Y-16115722D02*
X6698634Y-16220484D01*
X6698634Y-16115722D02*
X6708158Y-16096674D01*
X6708158Y-16096674D02*
X6727205Y-16087150D01*
X6727205Y-16087150D02*
X6755777Y-16087150D01*
X6755777Y-16087150D02*
X6774824Y-16096674D01*
X6774824Y-16096674D02*
X6784348Y-16115722D01*
X6784348Y-16115722D02*
X6784348Y-16220484D01*
X6879586Y-16220484D02*
X6879586Y-16087150D01*
X6879586Y-16106198D02*
X6889110Y-16096674D01*
X6889110Y-16096674D02*
X6908158Y-16087150D01*
X6908158Y-16087150D02*
X6936729Y-16087150D01*
X6936729Y-16087150D02*
X6955777Y-16096674D01*
X6955777Y-16096674D02*
X6965301Y-16115722D01*
X6965301Y-16115722D02*
X6965301Y-16220484D01*
X6965301Y-16115722D02*
X6974824Y-16096674D01*
X6974824Y-16096674D02*
X6993872Y-16087150D01*
X6993872Y-16087150D02*
X7022443Y-16087150D01*
X7022443Y-16087150D02*
X7041491Y-16096674D01*
X7041491Y-16096674D02*
X7051015Y-16115722D01*
X7051015Y-16115722D02*
X7051015Y-16220484D01*
X7441491Y-16010960D02*
X7270063Y-16268103D01*
X7698634Y-16020484D02*
X7717682Y-16020484D01*
X7717682Y-16020484D02*
X7736729Y-16030008D01*
X7736729Y-16030008D02*
X7746253Y-16039531D01*
X7746253Y-16039531D02*
X7755777Y-16058579D01*
X7755777Y-16058579D02*
X7765301Y-16096674D01*
X7765301Y-16096674D02*
X7765301Y-16144293D01*
X7765301Y-16144293D02*
X7755777Y-16182388D01*
X7755777Y-16182388D02*
X7746253Y-16201436D01*
X7746253Y-16201436D02*
X7736729Y-16210960D01*
X7736729Y-16210960D02*
X7717682Y-16220484D01*
X7717682Y-16220484D02*
X7698634Y-16220484D01*
X7698634Y-16220484D02*
X7679586Y-16210960D01*
X7679586Y-16210960D02*
X7670063Y-16201436D01*
X7670063Y-16201436D02*
X7660539Y-16182388D01*
X7660539Y-16182388D02*
X7651015Y-16144293D01*
X7651015Y-16144293D02*
X7651015Y-16096674D01*
X7651015Y-16096674D02*
X7660539Y-16058579D01*
X7660539Y-16058579D02*
X7670063Y-16039531D01*
X7670063Y-16039531D02*
X7679586Y-16030008D01*
X7679586Y-16030008D02*
X7698634Y-16020484D01*
X7851015Y-16201436D02*
X7860539Y-16210960D01*
X7860539Y-16210960D02*
X7851015Y-16220484D01*
X7851015Y-16220484D02*
X7841491Y-16210960D01*
X7841491Y-16210960D02*
X7851015Y-16201436D01*
X7851015Y-16201436D02*
X7851015Y-16220484D01*
X8051015Y-16220484D02*
X7936729Y-16220484D01*
X7993872Y-16220484D02*
X7993872Y-16020484D01*
X7993872Y-16020484D02*
X7974825Y-16049055D01*
X7974825Y-16049055D02*
X7955777Y-16068103D01*
X7955777Y-16068103D02*
X7936729Y-16077627D01*
X8222444Y-16087150D02*
X8222444Y-16220484D01*
X8174825Y-16010960D02*
X8127206Y-16153817D01*
X8127206Y-16153817D02*
X8251015Y-16153817D01*
X8422444Y-16020484D02*
X8327206Y-16020484D01*
X8327206Y-16020484D02*
X8317682Y-16115722D01*
X8317682Y-16115722D02*
X8327206Y-16106198D01*
X8327206Y-16106198D02*
X8346253Y-16096674D01*
X8346253Y-16096674D02*
X8393872Y-16096674D01*
X8393872Y-16096674D02*
X8412920Y-16106198D01*
X8412920Y-16106198D02*
X8422444Y-16115722D01*
X8422444Y-16115722D02*
X8431968Y-16134769D01*
X8431968Y-16134769D02*
X8431968Y-16182388D01*
X8431968Y-16182388D02*
X8422444Y-16201436D01*
X8422444Y-16201436D02*
X8412920Y-16210960D01*
X8412920Y-16210960D02*
X8393872Y-16220484D01*
X8393872Y-16220484D02*
X8346253Y-16220484D01*
X8346253Y-16220484D02*
X8327206Y-16210960D01*
X8327206Y-16210960D02*
X8317682Y-16201436D01*
X8498634Y-16020484D02*
X8631968Y-16020484D01*
X8631968Y-16020484D02*
X8546253Y-16220484D01*
X8698634Y-16020484D02*
X8698634Y-16058579D01*
X8774825Y-16020484D02*
X8774825Y-16058579D01*
X9070063Y-16296674D02*
X9060539Y-16287150D01*
X9060539Y-16287150D02*
X9041491Y-16258579D01*
X9041491Y-16258579D02*
X9031968Y-16239531D01*
X9031968Y-16239531D02*
X9022444Y-16210960D01*
X9022444Y-16210960D02*
X9012920Y-16163341D01*
X9012920Y-16163341D02*
X9012920Y-16125246D01*
X9012920Y-16125246D02*
X9022444Y-16077627D01*
X9022444Y-16077627D02*
X9031968Y-16049055D01*
X9031968Y-16049055D02*
X9041491Y-16030008D01*
X9041491Y-16030008D02*
X9060539Y-16001436D01*
X9060539Y-16001436D02*
X9070063Y-15991912D01*
X9136730Y-16039531D02*
X9146253Y-16030008D01*
X9146253Y-16030008D02*
X9165301Y-16020484D01*
X9165301Y-16020484D02*
X9212920Y-16020484D01*
X9212920Y-16020484D02*
X9231968Y-16030008D01*
X9231968Y-16030008D02*
X9241491Y-16039531D01*
X9241491Y-16039531D02*
X9251015Y-16058579D01*
X9251015Y-16058579D02*
X9251015Y-16077627D01*
X9251015Y-16077627D02*
X9241491Y-16106198D01*
X9241491Y-16106198D02*
X9127206Y-16220484D01*
X9127206Y-16220484D02*
X9251015Y-16220484D01*
X9489111Y-16220484D02*
X9489111Y-16020484D01*
X9574825Y-16220484D02*
X9574825Y-16115722D01*
X9574825Y-16115722D02*
X9565301Y-16096674D01*
X9565301Y-16096674D02*
X9546253Y-16087150D01*
X9546253Y-16087150D02*
X9517682Y-16087150D01*
X9517682Y-16087150D02*
X9498634Y-16096674D01*
X9498634Y-16096674D02*
X9489111Y-16106198D01*
X9698634Y-16220484D02*
X9679587Y-16210960D01*
X9679587Y-16210960D02*
X9670063Y-16201436D01*
X9670063Y-16201436D02*
X9660539Y-16182388D01*
X9660539Y-16182388D02*
X9660539Y-16125246D01*
X9660539Y-16125246D02*
X9670063Y-16106198D01*
X9670063Y-16106198D02*
X9679587Y-16096674D01*
X9679587Y-16096674D02*
X9698634Y-16087150D01*
X9698634Y-16087150D02*
X9727206Y-16087150D01*
X9727206Y-16087150D02*
X9746253Y-16096674D01*
X9746253Y-16096674D02*
X9755777Y-16106198D01*
X9755777Y-16106198D02*
X9765301Y-16125246D01*
X9765301Y-16125246D02*
X9765301Y-16182388D01*
X9765301Y-16182388D02*
X9755777Y-16201436D01*
X9755777Y-16201436D02*
X9746253Y-16210960D01*
X9746253Y-16210960D02*
X9727206Y-16220484D01*
X9727206Y-16220484D02*
X9698634Y-16220484D01*
X9879587Y-16220484D02*
X9860539Y-16210960D01*
X9860539Y-16210960D02*
X9851015Y-16191912D01*
X9851015Y-16191912D02*
X9851015Y-16020484D01*
X10031968Y-16210960D02*
X10012920Y-16220484D01*
X10012920Y-16220484D02*
X9974825Y-16220484D01*
X9974825Y-16220484D02*
X9955777Y-16210960D01*
X9955777Y-16210960D02*
X9946253Y-16191912D01*
X9946253Y-16191912D02*
X9946253Y-16115722D01*
X9946253Y-16115722D02*
X9955777Y-16096674D01*
X9955777Y-16096674D02*
X9974825Y-16087150D01*
X9974825Y-16087150D02*
X10012920Y-16087150D01*
X10012920Y-16087150D02*
X10031968Y-16096674D01*
X10031968Y-16096674D02*
X10041492Y-16115722D01*
X10041492Y-16115722D02*
X10041492Y-16134769D01*
X10041492Y-16134769D02*
X9946253Y-16153817D01*
X10117682Y-16210960D02*
X10136730Y-16220484D01*
X10136730Y-16220484D02*
X10174825Y-16220484D01*
X10174825Y-16220484D02*
X10193873Y-16210960D01*
X10193873Y-16210960D02*
X10203396Y-16191912D01*
X10203396Y-16191912D02*
X10203396Y-16182388D01*
X10203396Y-16182388D02*
X10193873Y-16163341D01*
X10193873Y-16163341D02*
X10174825Y-16153817D01*
X10174825Y-16153817D02*
X10146253Y-16153817D01*
X10146253Y-16153817D02*
X10127206Y-16144293D01*
X10127206Y-16144293D02*
X10117682Y-16125246D01*
X10117682Y-16125246D02*
X10117682Y-16115722D01*
X10117682Y-16115722D02*
X10127206Y-16096674D01*
X10127206Y-16096674D02*
X10146253Y-16087150D01*
X10146253Y-16087150D02*
X10174825Y-16087150D01*
X10174825Y-16087150D02*
X10193873Y-16096674D01*
X10270063Y-16296674D02*
X10279587Y-16287150D01*
X10279587Y-16287150D02*
X10298634Y-16258579D01*
X10298634Y-16258579D02*
X10308158Y-16239531D01*
X10308158Y-16239531D02*
X10317682Y-16210960D01*
X10317682Y-16210960D02*
X10327206Y-16163341D01*
X10327206Y-16163341D02*
X10327206Y-16125246D01*
X10327206Y-16125246D02*
X10317682Y-16077627D01*
X10317682Y-16077627D02*
X10308158Y-16049055D01*
X10308158Y-16049055D02*
X10298634Y-16030008D01*
X10298634Y-16030008D02*
X10279587Y-16001436D01*
X10279587Y-16001436D02*
X10270063Y-15991912D01*
M02*
