M48
; DRILL file {KiCad 8.0.7} date 2025-01-08T12:31:36+0100
; FORMAT={-:-/ absolute / metric / decimal}
; #@! TF.CreationDate,2025-01-08T12:31:36+01:00
; #@! TF.GenerationSoftware,Kicad,Pcbnew,8.0.7
; #@! TF.FileFunction,Plated,1,2,PTH
FMAT,2
METRIC
; #@! TA.AperFunction,Plated,PTH,ViaDrill
T1C0.400
; #@! TA.AperFunction,Plated,PTH,ComponentDrill
T2C0.762
; #@! TA.AperFunction,Plated,PTH,ComponentDrill
T3C0.800
; #@! TA.AperFunction,Plated,PTH,ComponentDrill
T4C1.000
; #@! TA.AperFunction,Plated,PTH,ComponentDrill
T5C1.020
; #@! TA.AperFunction,Plated,PTH,ComponentDrill
T6C1.100
; #@! TA.AperFunction,Plated,PTH,ComponentDrill
T7C3.700
%
G90
G05
T1
X61.5Y-89.25
X80.286Y-125.788
X91.975Y-104.075
X92.0Y-105.125
X98.045Y-126.862
X102.292Y-116.209
X108.75Y-62.5
X111.5Y-62.5
X112.325Y-83.447
X114.0Y-95.75
X128.635Y-97.825
X128.75Y-86.0
X128.75Y-89.25
X133.5Y-97.25
X133.5Y-100.25
X134.025Y-101.75
X134.025Y-103.0
X134.75Y-97.25
X135.75Y-92.0
X136.725Y-101.75
X136.725Y-103.0
X137.5Y-99.712
X140.416Y-102.889
X147.0Y-100.0
T2
X57.0Y-62.5
X60.36Y-62.5
X63.72Y-62.5
X67.08Y-62.42
X82.0Y-119.0
X82.0Y-121.537
X82.0Y-124.074
X82.0Y-126.611
X82.0Y-129.149
X82.0Y-131.686
X82.0Y-134.223
X82.0Y-136.76
X94.73Y-119.0
X94.73Y-121.537
X94.73Y-124.074
X94.73Y-126.611
X94.73Y-129.149
X94.73Y-131.686
X94.73Y-134.223
X94.73Y-136.76
X104.75Y-119.0
X104.75Y-121.54
X104.75Y-124.08
X104.75Y-130.26
X104.75Y-132.8
X104.75Y-135.34
X116.75Y-91.5
X116.75Y-94.04
X116.75Y-96.58
X116.75Y-99.12
X116.75Y-101.66
X116.75Y-104.2
X126.67Y-114.635
X126.91Y-91.5
X126.91Y-94.04
X126.91Y-96.58
X126.91Y-99.12
X126.91Y-101.66
X126.91Y-104.2
X128.0Y-61.25
X128.0Y-63.79
X128.0Y-66.33
X128.0Y-68.87
X128.0Y-71.41
X128.0Y-73.95
X128.0Y-76.49
X128.0Y-79.03
X128.0Y-81.57
X128.0Y-84.11
X129.21Y-114.635
X131.75Y-114.635
X134.29Y-114.635
X143.94Y-82.76
X143.94Y-85.3
X143.94Y-87.84
X143.94Y-90.38
X143.94Y-92.92
X143.94Y-95.46
X143.94Y-98.0
T3
X63.5Y-71.0
X63.5Y-73.5
X65.75Y-101.25
X65.75Y-111.41
X70.5Y-61.25
X70.5Y-71.41
X70.75Y-101.25
X70.75Y-111.41
X74.922Y-61.3
X74.922Y-71.46
X75.75Y-133.818
X75.75Y-136.318
X112.0Y-120.0
X112.0Y-122.0
X112.25Y-130.75
X112.25Y-132.75
X113.0Y-90.75
X113.0Y-93.25
X126.5Y-109.0
X129.0Y-109.0
X131.25Y-96.5
X131.25Y-99.0
X133.75Y-81.5
X133.75Y-84.0
X139.5Y-85.25
X139.5Y-87.75
T4
X57.4Y-101.81
X57.4Y-104.35
X57.4Y-106.89
X57.4Y-109.43
X57.5Y-68.55
X57.5Y-71.09
X57.5Y-73.63
X57.5Y-79.75
X57.5Y-82.29
X57.5Y-84.83
X57.5Y-91.5
X57.5Y-94.04
X57.5Y-96.58
X57.5Y-117.5
X57.5Y-120.04
X57.5Y-122.58
X57.5Y-125.12
X57.75Y-134.0
X57.75Y-136.54
X64.362Y-134.0
X64.362Y-136.54
X64.5Y-120.0
X70.0Y-117.75
X70.0Y-120.29
X70.0Y-122.83
X70.0Y-125.37
X76.5Y-120.25
X79.88Y-60.5
X79.88Y-63.04
X79.88Y-65.58
X133.25Y-108.67
X137.5Y-108.75
X148.5Y-125.25
X148.5Y-127.79
T5
X86.97Y-59.87
X86.97Y-62.41
X86.97Y-64.95
X86.97Y-67.49
X86.97Y-70.03
X86.97Y-72.57
X86.97Y-75.11
X86.97Y-77.65
X86.97Y-80.19
X86.97Y-82.73
X86.97Y-85.27
X86.97Y-87.81
X86.97Y-90.35
X86.97Y-92.89
X86.97Y-95.43
X86.97Y-97.97
X86.97Y-100.51
X86.97Y-103.05
X86.97Y-105.59
X86.97Y-108.13
X93.32Y-107.9
X95.86Y-107.9
X98.4Y-107.9
X104.75Y-59.87
X104.75Y-62.41
X104.75Y-64.95
X104.75Y-67.49
X104.75Y-70.03
X104.75Y-72.57
X104.75Y-75.11
X104.75Y-77.65
X104.75Y-80.19
X104.75Y-82.73
X104.75Y-85.27
X104.75Y-87.81
X104.75Y-90.35
X104.75Y-92.89
X104.75Y-95.43
X104.75Y-97.97
X104.75Y-100.51
X104.75Y-103.05
X104.75Y-105.59
X104.75Y-108.13
T6
X64.5Y-86.25
X64.75Y-93.0
X74.66Y-86.25
X74.91Y-93.0
T7
X148.5Y-105.0
X148.5Y-134.5
M30
