M48
; DRILL file {KiCad 9.0.7} date 2026-02-22T09:40:33+0100
; FORMAT={-:-/ absolute / inch / decimal}
; #@! TF.CreationDate,2026-02-22T09:40:33+01:00
; #@! TF.GenerationSoftware,Kicad,Pcbnew,9.0.7
; #@! TF.FileFunction,Plated,1,4,PTH
FMAT,2
INCH
; #@! TA.AperFunction,Plated,PTH,ViaDrill
T1C0.0157
; #@! TA.AperFunction,Plated,PTH,ComponentDrill
T2C0.0197
; #@! TA.AperFunction,Plated,PTH,ComponentDrill
T3C0.0295
; #@! TA.AperFunction,Plated,PTH,ComponentDrill
T4C0.0315
; #@! TA.AperFunction,Plated,PTH,ComponentDrill
T5C0.0354
; #@! TA.AperFunction,Plated,PTH,ComponentDrill
T6C0.0374
; #@! TA.AperFunction,Plated,PTH,ComponentDrill
T7C0.0394
; #@! TA.AperFunction,Plated,PTH,ComponentDrill
T8C0.0398
; #@! TA.AperFunction,Plated,PTH,ComponentDrill
T9C0.0402
; #@! TA.AperFunction,Plated,PTH,ComponentDrill
T10C0.0413
; #@! TA.AperFunction,Plated,PTH,ComponentDrill
T11C0.0433
; #@! TA.AperFunction,Plated,PTH,ComponentDrill
T12C0.0472
; #@! TA.AperFunction,Plated,PTH,ComponentDrill
T13C0.0512
; #@! TA.AperFunction,Plated,PTH,ComponentDrill
T14C0.0591
; #@! TA.AperFunction,Plated,PTH,ComponentDrill
T15C0.1457
%
G90
G05
T1
X2.2258Y-3.2665
X2.2323Y-3.4159
X2.2441Y-3.5138
X2.3293Y-1.8489
X2.7889Y-2.5529
X2.8501Y-2.3833
X2.962Y-3.298
X3.097Y-4.4907
X3.1378Y-5.2389
X3.1425Y-2.245
X3.2342Y-4.0598
X3.2382Y-2.2266
X3.2469Y-4.1296
X3.3007Y-2.2123
X3.3555Y-2.4575
X3.3701Y-2.2712
X3.3719Y-2.3309
X3.376Y-5.0169
X3.3779Y-2.206
X3.4811Y-4.4081
X3.5089Y-3.5699
X3.5545Y-4.2687
X3.5896Y-4.4261
X3.6074Y-2.963
X3.63Y-4.3181
X3.6496Y-4.5371
X3.6834Y-4.4698
X3.7341Y-3.8729
X3.7583Y-2.2048
X3.8261Y-2.4414
X3.8567Y-3.2886
X3.8614Y-4.4239
X3.8836Y-2.6596
X3.8896Y-3.3195
X3.9074Y-2.0925
X3.9139Y-5.23
X3.9163Y-3.7826
X4.0759Y-4.6389
X4.0939Y-2.2901
X4.1508Y-4.7994
X4.1519Y-2.3692
X4.1999Y-5.4191
X4.2397Y-2.5969
X4.2957Y-2.9232
X4.2967Y-2.8262
X4.3466Y-3.8785
X4.439Y-2.815
X4.498Y-2.815
X4.5061Y-2.6275
X4.5374Y-2.9232
X4.5571Y-2.815
X4.5965Y-2.8543
X4.6358Y-2.6181
X4.6457Y-2.8839
X4.685Y-2.9134
X4.7244Y-2.628
X4.7539Y-2.6772
X4.813Y-2.7362
X4.872Y-2.7559
X4.8917Y-2.628
X4.9409Y-2.7559
X4.9508Y-2.874
X4.9606Y-2.6476
X4.9606Y-3.5335
X4.9606Y-3.5728
X4.9705Y-3.3268
X4.9803Y-3.376
X5.0Y-2.9134
X5.0098Y-2.7559
X5.0098Y-2.874
X5.0295Y-2.3524
X5.0295Y-3.4449
X5.0492Y-2.9134
X5.0591Y-3.5335
X5.0591Y-3.5827
X5.0635Y-3.7581
X5.0696Y-5.2522
X5.0751Y-3.8671
X5.1103Y-2.7284
X5.1181Y-2.7953
X5.1213Y-3.9657
X5.128Y-2.3524
X5.1575Y-3.5335
X5.1575Y-3.5827
X5.1673Y-2.6575
X5.1673Y-2.8445
X5.1969Y-2.3524
X5.1969Y-3.2776
X5.2264Y-3.4449
X5.2362Y-3.3071
X5.2573Y-3.6087
X5.2579Y-2.9961
X5.2657Y-2.3524
X5.2953Y-3.3563
X5.2973Y-3.6811
X5.3051Y-3.2382
X5.3051Y-3.563
X5.315Y-2.9429
X5.315Y-3.002
X5.315Y-3.0906
X5.3248Y-2.3524
X5.3346Y-2.6575
X5.3543Y-3.622
X5.3642Y-3.7598
X5.3697Y-3.431
X5.3937Y-2.5197
X5.3937Y-2.5591
X5.3937Y-3.2355
X5.3937Y-3.2749
X5.4035Y-1.6043
X5.4035Y-1.6535
X5.4113Y-2.8565
X5.4134Y-3.7303
X5.4232Y-3.5925
X5.4323Y-2.5589
X5.4331Y-2.5197
X5.4331Y-3.2355
X5.4331Y-3.2749
X5.4528Y-1.6043
X5.4528Y-1.6535
X5.4626Y-3.6909
X5.4921Y-2.9626
X5.502Y-3.0118
X5.502Y-3.6417
X5.5141Y-3.4673
X5.5285Y-4.6546
X5.5315Y-1.7126
X5.5315Y-1.7618
X5.5413Y-3.214
X5.5512Y-2.9921
X5.5709Y-2.7657
X5.5709Y-2.815
X5.5807Y-1.7126
X5.5807Y-1.7618
X5.5874Y-4.3286
X5.5906Y-3.1791
X5.5906Y-3.2283
X5.5906Y-3.2776
X5.6102Y-3.563
X5.6102Y-3.622
X5.6102Y-3.6811
X5.6102Y-3.7402
X5.6201Y-2.7657
X5.6201Y-2.815
X5.6398Y-2.8543
X5.6398Y-3.1791
X5.6398Y-3.2283
X5.6398Y-3.2776
X5.6594Y-2.0768
X5.6594Y-2.1358
X5.6693Y-1.6043
X5.6693Y-1.6535
X5.689Y-2.8248
X5.7087Y-1.6043
X5.7087Y-1.6535
X5.7185Y-2.0768
X5.7185Y-2.6575
X5.7185Y-3.0512
X5.7579Y-2.6575
X5.7776Y-1.7618
X5.7972Y-3.0217
X5.8268Y-1.7618
X5.8436Y-2.8972
X5.8661Y-1.7618
X5.8933Y-4.0457
X5.9843Y-2.2933
X5.9843Y-2.3425
X6.0236Y-2.2933
X6.0236Y-2.3425
X6.0535Y-2.4768
X7.0276Y-3.6024
X7.2047Y-2.8248
T2
X2.2815Y-2.5896
X2.3135Y-2.5123
X2.3135Y-2.6668
X2.3907Y-2.4803
X2.3907Y-2.6988
X2.468Y-2.5123
X2.468Y-2.6668
X2.5Y-2.5896
X5.8061Y-4.5384
X5.8381Y-4.4611
X5.8381Y-4.6156
X5.9154Y-4.4291
X5.9154Y-4.6476
X5.9926Y-4.4611
X5.9926Y-4.6156
X6.0246Y-4.5384
T3
X2.6575Y-2.8661
X2.687Y-2.4508
X2.687Y-2.5295
X2.687Y-2.6083
X2.7362Y-2.8661
X2.815Y-2.8661
X2.9724Y-2.4508
X2.9724Y-2.5295
X2.9724Y-2.6083
X3.0217Y-2.8661
X3.1004Y-2.8661
X3.1791Y-2.8661
X4.311Y-2.687
X4.311Y-2.7657
X4.311Y-2.9724
X4.311Y-3.0512
X4.311Y-3.2874
X4.311Y-3.3661
X4.311Y-3.5827
X4.311Y-3.6614
X5.374Y-4.439
X5.374Y-4.5177
X5.374Y-4.5965
X5.6181Y-4.439
X5.6181Y-4.5177
X5.6181Y-4.5965
T4
X2.2244Y-2.2835
X2.2343Y-2.815
X2.2343Y-2.9134
X2.3228Y-2.2835
X2.3622Y-2.815
X2.3622Y-2.9134
X2.4803Y-3.8878
X2.4803Y-4.0256
X2.4902Y-2.815
X2.4902Y-2.9134
X2.5197Y-2.2835
X2.5492Y-4.3307
X2.5787Y-3.8878
X2.5787Y-4.0256
X2.6181Y-2.2835
X2.6476Y-4.3307
X2.7461Y-2.2835
X2.8445Y-2.2835
X2.9724Y-2.2835
X3.0709Y-2.2835
X3.1102Y-3.9043
X3.1102Y-4.3043
X3.2158Y-2.3622
X3.2382Y-2.5689
X3.2382Y-2.6673
X3.2382Y-3.9043
X3.2382Y-4.3043
X3.2972Y-4.6654
X3.2972Y-4.7638
X3.3143Y-2.3622
X3.3366Y-4.9311
X3.3366Y-5.3311
X3.8157Y-4.6555
X3.8189Y-2.2736
X3.8189Y-2.372
X3.8189Y-4.7933
X3.8386Y-1.9783
X3.8386Y-2.0768
X4.1929Y-5.2461
X4.1929Y-5.3445
X4.2157Y-4.6555
X4.2189Y-4.7933
X4.2815Y-2.4803
X4.3799Y-2.4803
X5.2854Y-3.8878
X5.2854Y-3.9862
X5.3071Y-5.0787
X5.3071Y-5.3787
X5.3445Y-4.7638
X5.4071Y-5.0787
X5.4071Y-5.3787
X5.4102Y-4.1043
X5.4102Y-4.2224
X5.4134Y-2.6673
X5.4134Y-2.7657
X5.4331Y-3.3832
X5.4331Y-3.4816
X5.4429Y-4.7638
X5.5071Y-5.0787
X5.5071Y-5.3787
X5.5906Y-3.8878
X5.5906Y-3.9665
X5.5906Y-4.7638
X5.5972Y-2.5394
X5.5972Y-2.6772
X5.6071Y-5.0787
X5.6071Y-5.3787
X5.689Y-4.7638
X5.7071Y-5.0787
X5.7071Y-5.3787
X5.7972Y-3.878
X5.7972Y-3.9764
X5.8071Y-5.0787
X5.8071Y-5.3787
X5.8102Y-4.1043
X5.8102Y-4.2224
X5.8268Y-2.0213
X5.8268Y-2.4213
X5.9071Y-5.0787
X5.9071Y-5.3787
X5.9154Y-4.7933
X5.9972Y-2.5394
X5.9972Y-2.6772
X6.0071Y-5.0787
X6.0071Y-5.3787
X6.0138Y-4.7933
T5
X3.4681Y-4.7244
X3.5531Y-4.7244
X3.6381Y-4.7244
X3.7231Y-4.7244
T6
X2.2736Y-3.9469
X2.2736Y-4.0453
X2.2736Y-4.1437
X2.2736Y-4.2421
X2.872Y-3.9567
X2.872Y-4.0551
X2.872Y-4.1535
X2.872Y-4.252
X4.4094Y-3.9882
X4.5079Y-3.9882
X4.6063Y-3.9882
X5.9941Y-3.937
X5.9941Y-4.0354
X5.9941Y-4.1339
X5.9941Y-4.2323
T7
X3.3898Y-2.5631
X3.3898Y-2.6631
X3.3898Y-2.7631
X3.3898Y-2.8631
X3.3898Y-2.9631
X3.3898Y-3.0631
X3.3898Y-3.1631
X3.3898Y-3.2631
X3.3898Y-3.3631
X3.3898Y-3.4631
X3.3898Y-3.5631
X3.3898Y-3.6631
X3.3898Y-3.7631
X3.3898Y-3.8631
X3.3898Y-3.9631
X3.3898Y-4.0631
X3.3898Y-4.1631
X3.3898Y-4.2631
X3.3898Y-4.3631
X3.3898Y-4.4631
X3.4843Y-5.0689
X3.4843Y-5.2657
X3.5236Y-2.3327
X3.622Y-2.3327
X4.0551Y-5.0689
X4.0551Y-5.1673
X4.0551Y-5.2657
X4.0898Y-2.5631
X4.0898Y-2.6631
X4.0898Y-2.7631
X4.0898Y-2.8631
X4.0898Y-2.9631
X4.0898Y-3.0631
X4.0898Y-3.1631
X4.0898Y-3.2631
X4.0898Y-3.3631
X4.0898Y-3.4631
X4.0898Y-3.5631
X4.0898Y-3.6631
X4.0898Y-3.7631
X4.0898Y-3.8631
X4.0898Y-3.9631
X4.0898Y-4.0631
X4.0898Y-4.1631
X4.0898Y-4.2631
X4.0898Y-4.3631
X4.0898Y-4.4631
T8
X4.3441Y-4.2503
X4.3441Y-4.3503
X4.3441Y-4.4503
X4.3441Y-4.5503
X4.3441Y-4.6503
X4.3441Y-4.7503
X4.3441Y-4.8503
X4.3441Y-4.9503
X4.3441Y-5.0503
X4.3441Y-5.1503
X4.3441Y-5.2503
X4.3441Y-5.3503
X5.1441Y-4.2503
X5.1441Y-4.3503
X5.1441Y-4.4503
X5.1441Y-4.5503
X5.1441Y-4.6503
X5.1441Y-4.7503
X5.1441Y-4.8503
X5.1441Y-4.9503
X5.1441Y-5.0503
X5.1441Y-5.1503
X5.1441Y-5.2503
X5.1441Y-5.3503
T9
X2.2343Y-1.624
X2.2343Y-1.724
X2.2343Y-1.824
X2.2343Y-1.924
X2.2343Y-2.024
X2.2343Y-2.124
X2.5469Y-4.4963
X2.6343Y-1.624
X2.6343Y-1.724
X2.6343Y-1.824
X2.6343Y-1.924
X2.6343Y-2.024
X2.6343Y-2.124
X2.6469Y-4.4963
X2.7469Y-4.4963
X2.7756Y-1.624
X2.7756Y-1.724
X2.7756Y-1.824
X2.7756Y-1.924
X2.7756Y-2.024
X2.7756Y-2.124
X2.8469Y-4.4963
X3.1756Y-1.624
X3.1756Y-1.724
X3.1756Y-1.824
X3.1756Y-1.924
X3.1756Y-2.024
X3.1756Y-2.124
X3.3169Y-1.624
X3.3169Y-1.724
X3.3169Y-1.824
X3.3169Y-1.924
X3.3169Y-2.024
X3.3169Y-2.124
X3.7169Y-1.624
X3.7169Y-1.724
X3.7169Y-1.824
X3.7169Y-1.924
X3.7169Y-2.024
X3.7169Y-2.124
X4.5173Y-2.5425
X4.5173Y-3.0437
X4.5173Y-3.189
X4.5173Y-3.6902
X4.6172Y-2.5425
X4.6172Y-3.0437
X4.6172Y-3.189
X4.6172Y-3.6902
X4.7171Y-2.5425
X4.7171Y-3.0437
X4.7171Y-3.189
X4.7171Y-3.6902
X4.817Y-2.5425
X4.817Y-3.0437
X4.817Y-3.189
X4.817Y-3.6902
X4.9169Y-2.5425
X4.9169Y-3.0437
X4.9169Y-3.189
X4.9169Y-3.6902
X5.0168Y-2.5425
X5.0168Y-3.0437
X5.0168Y-3.189
X5.0168Y-3.6902
X5.1166Y-2.5425
X5.1166Y-3.0437
X5.1166Y-3.189
X5.1166Y-3.6902
X5.2165Y-2.5425
X5.2165Y-3.0437
X5.2165Y-3.189
X5.2165Y-3.6902
T10
X2.2882Y-3.7154
X2.3882Y-3.7154
X2.4882Y-3.7154
X2.5882Y-3.7154
X2.6882Y-3.7154
X2.7882Y-3.7154
X2.8882Y-3.7154
X2.9882Y-3.7154
X3.0882Y-3.7154
X3.1882Y-3.7154
X3.9724Y-1.622
X3.9724Y-2.3453
X5.561Y-1.624
X5.561Y-2.3445
T11
X5.2929Y-4.9311
X5.5929Y-4.9311
X5.7161Y-4.9311
X6.0161Y-4.9311
T12
X5.748Y-2.9232
X5.748Y-3.2185
T13
X5.8169Y-1.6634
X5.8169Y-1.8602
T15
X2.3907Y-2.5896
X5.9154Y-4.5384
T14
G00X3.7854Y-4.9469
M15
G01X3.7343Y-4.9469
M16
G05
G00X3.7854Y-5.3878
M15
G01X3.7343Y-5.3878
M16
G05
M30
